<svg width="504" height="313" viewBox="0 0 504 313" fill="none" xmlns="http://www.w3.org/2000/svg">
<mask id="mask0_1_3" style="mask-type:luminance" maskUnits="userSpaceOnUse" x="0" y="0" width="504" height="313">
<path d="M503.8 0H0V312.33H503.8V0Z" fill="white"/>
</mask>
<g mask="url(#mask0_1_3)">
<path d="M80.85 189.73C81.26 188.67 81.65 187.62 82.01 186.58C82.11 186.28 82.22 185.98 82.32 185.68C82.75 184.41 83.14 183.15 83.5 181.91C83.57 181.65 83.64 181.4 83.71 181.15C84 180.11 84.27 179.08 84.51 178.06C84.59 177.74 84.67 177.42 84.74 177.1C85.02 175.88 85.27 174.66 85.49 173.46C85.52 173.32 85.54 173.18 85.56 173.04C85.75 171.96 85.91 170.89 86.06 169.83C86.1 169.51 86.14 169.19 86.18 168.87C86.32 167.75 86.44 166.65 86.53 165.55C86.54 165.48 86.54 165.41 86.55 165.34C86.64 164.18 86.7 163.04 86.74 161.9C86.75 161.6 86.76 161.3 86.76 161C86.78 160.05 86.79 159.1 86.78 158.16C86.78 157.97 86.78 157.77 86.78 157.58C86.76 156.48 86.71 155.4 86.65 154.33C86.63 154.06 86.61 153.8 86.59 153.53C86.53 152.66 86.45 151.79 86.36 150.93C86.33 150.69 86.31 150.45 86.28 150.21C86.16 149.17 86.02 148.15 85.86 147.13C85.83 146.92 85.79 146.71 85.75 146.49C85.61 145.65 85.46 144.82 85.3 144C85.25 143.74 85.2 143.49 85.15 143.23C84.95 142.25 84.73 141.28 84.49 140.33C84.46 140.2 84.42 140.08 84.39 139.95C84.18 139.1 83.95 138.27 83.71 137.44C83.64 137.19 83.56 136.93 83.49 136.68C83.23 135.79 82.95 134.91 82.67 134.05C82.66 134.01 82.65 133.97 82.63 133.94C82.33 133.04 82.01 132.16 81.69 131.29C81.6 131.06 81.52 130.83 81.43 130.6C81.15 129.87 80.86 129.14 80.56 128.43C80.5 128.29 80.45 128.15 80.39 128.01C80.04 127.18 79.69 126.38 79.32 125.58C79.23 125.38 79.13 125.18 79.04 124.97C78.74 124.32 78.43 123.69 78.13 123.06C78.04 122.89 77.96 122.71 77.87 122.54C77.49 121.78 77.11 121.04 76.72 120.32C76.63 120.16 76.55 120.01 76.46 119.85C76.13 119.25 75.81 118.67 75.48 118.09C75.38 117.91 75.28 117.73 75.17 117.56C74.77 116.88 74.37 116.2 73.96 115.55C73.9 115.46 73.85 115.37 73.79 115.27C73.43 114.7 73.08 114.14 72.72 113.59C72.61 113.42 72.5 113.25 72.39 113.09C71.99 112.49 71.6 111.9 71.21 111.33C71.2 111.31 71.19 111.3 71.17 111.28C70.76 110.69 70.36 110.13 69.96 109.57C69.85 109.42 69.75 109.28 69.64 109.14C69.3 108.68 68.96 108.22 68.63 107.78C68.57 107.7 68.51 107.62 68.45 107.54C68.07 107.04 67.69 106.55 67.31 106.08C67.21 105.96 67.12 105.84 67.02 105.72C66.72 105.34 66.42 104.98 66.13 104.63C66.05 104.53 65.97 104.43 65.89 104.34C65.54 103.92 65.2 103.52 64.86 103.13C64.78 103.04 64.71 102.96 64.63 102.87C64.36 102.56 64.1 102.27 63.84 101.98C63.76 101.89 63.68 101.8 63.6 101.71C63.29 101.37 63 101.05 62.71 100.75C62.67 100.7 62.63 100.66 62.58 100.62C62.33 100.36 62.1 100.11 61.87 99.87C61.84 99.84 61.8 99.79 61.77 99.76L61.76 99.75C60.75 98.71 59.97 97.96 59.51 97.54C59.26 97.31 58.87 97.31 58.62 97.54L53.09 102.6L39.97 114.6C37.52 116.84 38.19 120.91 41.27 122.14C43.44 123.01 45.48 123.98 47.42 125.04V125.06C56.02 129.77 62.29 136.38 66.7 144.75C66.79 144.92 66.88 145.08 66.97 145.25C67.27 145.84 67.56 146.45 67.84 147.06C68.01 147.42 68.18 147.78 68.35 148.15C68.59 148.69 68.82 149.24 69.05 149.8C69.24 150.27 69.43 150.73 69.61 151.21C69.8 151.72 69.99 152.23 70.18 152.75C70.38 153.31 70.57 153.88 70.75 154.45C70.9 154.92 71.06 155.39 71.2 155.87C71.41 156.55 71.6 157.25 71.79 157.96C71.9 158.35 72.01 158.74 72.11 159.14C72.39 160.26 72.66 161.39 72.91 162.55C73.12 163.53 73.29 164.52 73.45 165.51C73.5 165.82 73.54 166.12 73.58 166.43C73.68 167.13 73.76 167.83 73.84 168.53C73.87 168.87 73.91 169.21 73.94 169.54C74.01 170.27 74.06 171 74.09 171.73C74.1 172 74.12 172.27 74.14 172.54C74.18 173.53 74.2 174.52 74.2 175.5C74.2 175.67 74.19 175.85 74.19 176.02C74.18 176.84 74.17 177.65 74.13 178.46C74.12 178.78 74.1 179.11 74.08 179.43C74.04 180.11 74 180.79 73.95 181.47C73.92 181.79 73.9 182.11 73.87 182.43C73.8 183.19 73.72 183.95 73.64 184.7C73.62 184.91 73.6 185.11 73.57 185.32C73.45 186.27 73.32 187.21 73.18 188.14C71.49 199.18 68.04 208.88 65.68 214.62C65.38 215.34 66.38 215.89 66.83 215.25C72.95 206.66 77.42 198.37 80.56 190.44C80.58 190.4 80.6 190.37 80.61 190.34C80.71 190.14 80.77 189.94 80.85 189.73Z" fill="#F1C631"/>
</g>
<mask id="mask1_1_3" style="mask-type:luminance" maskUnits="userSpaceOnUse" x="0" y="0" width="504" height="313">
<path d="M503.8 0H0V312.33H503.8V0Z" fill="white"/>
</mask>
<g mask="url(#mask1_1_3)">
<path d="M196.58 46.18L181.91 31.67L170.98 20.81C170.59 20.43 170.29 20.91 170.03 21.38C169.61 22.13 168.95 23.33 168.14 24.94C168.14 24.94 168.14 24.94 168.14 24.95C168.11 25.01 168.07 25.08 168.04 25.15C167.83 25.55 167.62 25.99 167.39 26.44C167.32 26.58 167.25 26.72 167.18 26.86C166.91 27.42 166.62 28 166.33 28.62C166.28 28.73 166.23 28.84 166.18 28.95C165.92 29.49 165.66 30.06 165.39 30.66C165.31 30.84 165.22 31.02 165.14 31.21C164.82 31.92 164.49 32.66 164.15 33.43C164.1 33.54 164.05 33.66 164 33.77C163.7 34.46 163.39 35.18 163.08 35.92C162.99 36.13 162.91 36.33 162.82 36.55C162.46 37.41 162.1 38.29 161.73 39.21C161.68 39.33 161.63 39.46 161.58 39.59C161.25 40.41 160.93 41.26 160.6 42.13C160.51 42.37 160.41 42.62 160.32 42.87C159.94 43.87 159.57 44.89 159.19 45.94C159.15 46.06 159.11 46.18 159.06 46.29C158.72 47.25 158.38 48.23 158.04 49.24C157.95 49.52 157.85 49.79 157.76 50.08C157.38 51.21 157.01 52.35 156.64 53.53C156.6 53.65 156.57 53.77 156.53 53.89C156.19 54.97 155.86 56.08 155.53 57.2C155.44 57.51 155.35 57.82 155.26 58.13C154.9 59.38 154.54 60.65 154.19 61.95C154.17 62.04 154.14 62.14 154.12 62.23C153.8 63.44 153.48 64.69 153.17 65.94C153.09 66.28 153 66.62 152.92 66.97C152.59 68.33 152.27 69.71 151.96 71.12C151.94 71.19 151.93 71.27 151.91 71.34C151.62 72.68 151.34 74.04 151.07 75.43C151 75.8 150.93 76.17 150.85 76.54C150.57 78.01 150.3 79.49 150.05 81C150.04 81.05 150.04 81.09 150.03 81.14C149.79 82.6 149.56 84.09 149.34 85.6C149.28 85.99 149.23 86.39 149.17 86.78C148.96 88.34 148.75 89.92 148.57 91.52C148.57 91.53 148.57 91.53 148.57 91.54C148.39 93.14 148.24 94.76 148.09 96.39C148.05 96.81 148.02 97.22 147.98 97.64C147.85 99.24 147.73 100.86 147.64 102.5C147.64 102.55 147.63 102.61 147.63 102.66C147.54 104.34 147.48 106.04 147.43 107.75C147.42 108.18 147.41 108.61 147.4 109.05C147.37 110.69 147.35 112.34 147.36 114C147.36 114.11 147.36 114.21 147.36 114.31C147.37 116.06 147.42 117.83 147.49 119.6C147.51 120.05 147.53 120.5 147.55 120.95C147.62 122.62 147.72 124.29 147.84 125.98C147.85 126.13 147.86 126.28 147.87 126.43C148.01 128.24 148.18 130.07 148.37 131.91C148.42 132.37 148.47 132.84 148.52 133.3C148.71 134.99 148.92 136.68 149.16 138.39C149.19 138.59 149.21 138.78 149.24 138.98C149.51 140.84 149.82 142.72 150.16 144.61C150.24 145.08 150.33 145.56 150.42 146.03C150.74 147.74 151.08 149.46 151.46 151.18C151.51 151.41 151.55 151.65 151.61 151.88C152.03 153.79 152.5 155.72 153 157.65C153.12 158.13 153.25 158.61 153.38 159.1C153.84 160.82 154.32 162.55 154.84 164.29C154.92 164.56 154.99 164.83 155.08 165.11C155.67 167.06 156.31 169.02 156.98 170.98C157.15 171.46 157.32 171.95 157.49 172.44C158.1 174.17 158.74 175.91 159.41 177.66C159.5 177.89 159.57 178.12 159.66 178.35C159.67 178.37 159.68 178.39 159.69 178.41C163.6 188.4 168.58 198.54 174.84 208.74C175.36 209.59 176.67 208.96 176.33 208.03C173.73 200.96 169.93 189.56 166.85 176.11C166.46 174.38 166.08 172.61 165.71 170.82C165.63 170.44 165.56 170.07 165.48 169.69C165.12 167.91 164.78 166.1 164.46 164.27C164.41 163.97 164.36 163.67 164.31 163.38C164.02 161.66 163.74 159.91 163.49 158.16C163.45 157.89 163.41 157.63 163.37 157.36C163.11 155.48 162.88 153.58 162.67 151.67C162.62 151.26 162.58 150.85 162.54 150.44C162.34 148.5 162.17 146.55 162.04 144.6C162.03 144.41 162.02 144.21 162.01 144.02C161.89 142.18 161.81 140.33 161.77 138.48C161.76 138.12 161.75 137.77 161.74 137.41C161.7 135.48 161.71 133.54 161.75 131.61C161.75 131.53 161.75 131.46 161.76 131.38C161.84 128.49 162 125.61 162.26 122.73C162.38 121.39 162.52 120.06 162.67 118.75C162.74 118.11 162.83 117.49 162.91 116.86C163.06 115.65 163.21 114.44 163.39 113.25C163.5 112.49 163.62 111.75 163.74 111C163.91 109.97 164.08 108.95 164.26 107.94C164.41 107.14 164.56 106.35 164.72 105.57C164.9 104.65 165.1 103.74 165.3 102.83C165.48 102.01 165.67 101.2 165.86 100.4C166.06 99.57 166.28 98.75 166.5 97.94C166.72 97.11 166.94 96.27 167.18 95.45C167.39 94.73 167.62 94.04 167.84 93.33C168.12 92.45 168.38 91.57 168.68 90.71C168.77 90.44 168.88 90.17 168.98 89.9C169.79 87.62 170.67 85.41 171.62 83.28C171.75 82.98 171.88 82.67 172.01 82.37C172.46 81.39 172.93 80.45 173.41 79.5C173.61 79.1 173.81 78.7 174.01 78.3C174.49 77.38 175 76.48 175.52 75.59C175.74 75.21 175.96 74.82 176.19 74.44C176.73 73.55 177.28 72.67 177.85 71.81C178.07 71.48 178.3 71.15 178.52 70.82C179.13 69.93 179.75 69.06 180.39 68.21C180.57 67.96 180.77 67.73 180.96 67.48C181.67 66.56 182.39 65.66 183.15 64.78C183.17 64.76 183.18 64.75 183.2 64.73C184.98 62.66 186.89 60.7 188.92 58.85H188.9C191.12 56.83 193.48 54.94 196.01 53.19C198.35 51.56 198.61 48.19 196.58 46.18Z" fill="#F1C631"/>
</g>
<mask id="mask2_1_3" style="mask-type:luminance" maskUnits="userSpaceOnUse" x="0" y="0" width="504" height="313">
<path d="M503.8 0H0V312.33H503.8V0Z" fill="white"/>
</mask>
<g mask="url(#mask2_1_3)">
<path d="M121.95 68.37C120.13 82.86 106.91 93.13 92.42 91.32C77.93 89.5 67.66 76.28 69.47 61.79C71.29 47.3 84.51 37.03 99 38.84C113.49 40.66 123.77 53.88 121.95 68.37Z" fill="#2B8A4A"/>
</g>
<mask id="mask3_1_3" style="mask-type:luminance" maskUnits="userSpaceOnUse" x="0" y="0" width="504" height="313">
<path d="M503.8 0H0V312.33H503.8V0Z" fill="white"/>
</mask>
<g mask="url(#mask3_1_3)">
<path d="M208.07 252.19C207.45 251.46 206.86 250.74 206.25 250.02C205.02 248.56 203.8 247.1 202.62 245.65C201.92 244.79 201.26 243.94 200.58 243.09C199.53 241.78 198.49 240.46 197.48 239.16C196.78 238.26 196.11 237.36 195.43 236.45C194.49 235.2 193.55 233.95 192.64 232.71C191.97 231.79 191.31 230.86 190.65 229.94C189.78 228.72 188.92 227.51 188.09 226.3C187.45 225.38 186.82 224.45 186.2 223.53C185.39 222.33 184.6 221.13 183.82 219.93C183.22 219.01 182.63 218.1 182.05 217.19C181.29 215.99 180.55 214.79 179.82 213.6C179.27 212.7 178.72 211.81 178.19 210.92C177.47 209.71 176.77 208.5 176.08 207.29C175.59 206.43 175.09 205.57 174.61 204.71C173.91 203.45 173.23 202.19 172.56 200.94C172.14 200.15 171.7 199.36 171.29 198.57C170.56 197.17 169.87 195.79 169.18 194.4C168.86 193.76 168.53 193.12 168.22 192.49C167.24 190.48 166.3 188.47 165.41 186.48C165.32 186.29 165.24 186.09 165.16 185.9C164.36 184.1 163.58 182.31 162.84 180.53C162.56 179.85 162.3 179.18 162.03 178.51C161.51 177.22 160.99 175.93 160.5 174.65C160.2 173.87 159.93 173.1 159.64 172.32C159.21 171.15 158.78 169.99 158.38 168.83C158.1 168.02 157.83 167.21 157.56 166.4C157.19 165.29 156.83 164.18 156.48 163.08C156.22 162.26 155.97 161.44 155.73 160.62C155.41 159.54 155.09 158.47 154.79 157.4C154.56 156.58 154.34 155.77 154.12 154.96C153.84 153.9 153.56 152.84 153.3 151.79C153.1 150.99 152.9 150.19 152.72 149.39C152.47 148.34 152.24 147.28 152.01 146.24C151.84 145.46 151.67 144.68 151.51 143.91C151.29 142.85 151.09 141.79 150.9 140.74C150.76 140 150.62 139.26 150.49 138.53C150.3 137.42 150.13 136.33 149.96 135.23C149.85 134.56 149.74 133.89 149.65 133.22C149.47 131.98 149.32 130.75 149.17 129.52C149.11 129.02 149.04 128.51 148.98 128.01C148.78 126.29 148.61 124.58 148.47 122.88C148.45 122.61 148.43 122.34 148.41 122.08C148.3 120.66 148.19 119.25 148.11 117.85C148.08 117.26 148.06 116.69 148.03 116.1C147.98 115.03 147.93 113.96 147.9 112.91C147.88 112.25 147.88 111.6 147.86 110.95C147.84 109.98 147.83 109.02 147.83 108.06C147.83 107.38 147.84 106.71 147.85 106.04C147.86 105.12 147.87 104.21 147.9 103.31C147.92 102.63 147.94 101.96 147.97 101.29C148 100.41 148.04 99.53 148.09 98.65C148.13 97.98 148.17 97.32 148.21 96.65C148.27 95.79 148.33 94.93 148.4 94.07C148.45 93.42 148.51 92.77 148.56 92.13C148.64 91.28 148.73 90.43 148.81 89.59C148.88 88.97 148.94 88.35 149.01 87.73C149.11 86.88 149.22 86.03 149.33 85.19C149.41 84.6 149.48 84.02 149.56 83.44C149.69 82.56 149.82 81.7 149.96 80.84C150.04 80.32 150.12 79.79 150.21 79.27C150.38 78.27 150.56 77.29 150.74 76.32C155.66 49.84 165.6 30.7 171.06 21.68C171.5 20.95 170.51 20.19 169.92 20.8C156.56 34.65 144.95 51.41 136.05 70.28C136.03 70.32 136 70.35 135.99 70.39C135.9 70.59 135.81 70.78 135.72 70.98C135.39 71.69 135.07 72.4 134.75 73.12C134.45 73.78 134.15 74.45 133.85 75.11C133.53 75.83 133.23 76.56 132.92 77.28C132.63 77.95 132.35 78.62 132.07 79.3C131.77 80.03 131.48 80.78 131.18 81.52C130.91 82.2 130.64 82.88 130.38 83.56C130.09 84.31 129.82 85.06 129.54 85.81C129.29 86.5 129.03 87.18 128.78 87.87C128.51 88.63 128.25 89.4 127.99 90.16C127.75 90.85 127.51 91.55 127.28 92.25C127.03 93.02 126.78 93.8 126.54 94.57C126.32 95.27 126.09 95.97 125.87 96.68C125.63 97.46 125.41 98.25 125.18 99.04C124.97 99.75 124.76 100.45 124.57 101.17C124.35 101.97 124.14 102.78 123.92 103.58C123.73 104.29 123.54 105 123.36 105.71C123.15 106.53 122.96 107.36 122.76 108.18C122.59 108.89 122.42 109.59 122.25 110.3C122.06 111.14 121.88 111.98 121.7 112.82C121.55 113.53 121.39 114.23 121.25 114.94C121.08 115.8 120.92 116.66 120.76 117.52C120.63 118.22 120.49 118.92 120.36 119.63C120.21 120.51 120.07 121.39 119.92 122.28C119.81 122.98 119.69 123.67 119.58 124.37C119.44 125.27 119.32 126.17 119.2 127.07C119.1 127.77 119 128.46 118.91 129.16C118.79 130.09 118.69 131.04 118.59 131.98C118.52 132.65 118.43 133.32 118.36 133.99C118.25 135.04 118.16 136.1 118.07 137.16C118.02 137.73 117.96 138.29 117.92 138.85C117.79 140.48 117.69 142.11 117.6 143.76C117.51 145.5 117.45 147.24 117.4 148.98C117.38 149.55 117.38 150.12 117.37 150.69C117.35 151.85 117.33 153.01 117.33 154.17C117.33 154.84 117.34 155.51 117.35 156.19C117.36 157.24 117.37 158.29 117.4 159.34C117.42 160.05 117.44 160.76 117.47 161.46C117.51 162.47 117.55 163.47 117.6 164.47C117.64 165.19 117.68 165.91 117.72 166.63C117.78 167.62 117.85 168.61 117.93 169.6C117.98 170.31 118.04 171.01 118.1 171.71C118.19 172.74 118.29 173.76 118.4 174.79C118.47 175.44 118.53 176.09 118.6 176.74C118.75 178.05 118.92 179.35 119.09 180.65C119.2 181.46 119.32 182.27 119.43 183.08C119.59 184.2 119.76 185.32 119.94 186.44C120.07 187.21 120.21 187.98 120.34 188.75C120.49 189.59 120.64 190.43 120.79 191.27C120.95 192.1 121.12 192.92 121.28 193.74C121.44 194.5 121.59 195.27 121.76 196.03C121.94 196.89 122.14 197.74 122.33 198.58C122.49 199.29 122.66 200 122.83 200.71C123.04 201.59 123.26 202.47 123.49 203.35C123.66 203.99 123.83 204.63 124 205.27C124.25 206.19 124.5 207.12 124.76 208.03C124.91 208.56 125.07 209.08 125.22 209.61C126.71 214.69 128.4 219.65 130.27 224.49C130.38 224.78 130.49 225.07 130.6 225.36C131.03 226.45 131.47 227.53 131.92 228.61C132.05 228.93 132.19 229.26 132.32 229.58C132.77 230.66 133.24 231.73 133.71 232.8C133.84 233.09 133.97 233.38 134.1 233.66C134.6 234.77 135.1 235.87 135.62 236.96C135.71 237.15 135.8 237.33 135.89 237.52C145.38 257.37 158.06 274.71 172.95 288.43C176.41 291.61 181.75 291.51 185.04 288.16L213.33 259.25C213.6 258.98 213.6 258.55 213.35 258.27C211.56 256.23 209.8 254.2 208.07 252.19Z" fill="#2B8A4A"/>
</g>
<mask id="mask4_1_3" style="mask-type:luminance" maskUnits="userSpaceOnUse" x="0" y="0" width="504" height="313">
<path d="M503.8 0H0V312.33H503.8V0Z" fill="white"/>
</mask>
<g mask="url(#mask4_1_3)">
<path d="M101.09 233.23C101.14 233.14 101.19 233.05 101.24 232.97C103.02 229.75 104.63 226.46 106.06 223.1C106.12 222.96 106.18 222.82 106.24 222.68C106.53 222 106.8 221.3 107.08 220.61C107.19 220.33 107.3 220.05 107.41 219.77C107.66 219.13 107.9 218.48 108.13 217.83C108.25 217.5 108.37 217.17 108.48 216.84C108.7 216.21 108.92 215.59 109.12 214.95C109.24 214.6 109.34 214.25 109.46 213.9C109.66 213.27 109.86 212.65 110.04 212.02C110.12 211.76 110.19 211.5 110.26 211.23C110.57 210.12 110.88 209.01 111.15 207.88C111.28 207.34 111.42 206.8 111.54 206.26C111.66 205.74 111.77 205.21 111.88 204.68C111.99 204.18 112.09 203.67 112.19 203.17C112.29 202.66 112.38 202.14 112.47 201.63C112.56 201.1 112.65 200.58 112.74 200.05C112.82 199.55 112.9 199.05 112.97 198.56C113.05 197.99 113.13 197.42 113.2 196.85C113.26 196.39 113.32 195.92 113.37 195.45C113.45 194.77 113.51 194.09 113.57 193.41C113.6 193.05 113.64 192.69 113.67 192.33C113.75 191.3 113.81 190.27 113.85 189.24C113.86 188.91 113.87 188.58 113.88 188.26C113.9 187.52 113.92 186.79 113.93 186.05C113.93 185.64 113.93 185.23 113.93 184.82C113.92 184.15 113.92 183.49 113.9 182.82C113.89 182.4 113.87 181.97 113.86 181.55C113.83 180.88 113.79 180.21 113.75 179.54C113.72 179.13 113.7 178.72 113.67 178.3C113.61 177.57 113.54 176.84 113.47 176.11C113.43 175.76 113.4 175.41 113.37 175.06C113.25 173.98 113.11 172.9 112.95 171.82C112.78 170.69 112.59 169.57 112.38 168.46C112.31 168.1 112.23 167.74 112.16 167.38C112.01 166.63 111.85 165.87 111.68 165.13C111.58 164.71 111.48 164.29 111.38 163.87C111.21 163.18 111.04 162.5 110.86 161.81C110.75 161.39 110.63 160.96 110.51 160.54C110.32 159.86 110.11 159.17 109.9 158.49C109.78 158.09 109.66 157.69 109.53 157.29C109.29 156.55 109.04 155.81 108.78 155.08C108.67 154.76 108.56 154.43 108.44 154.11C108.06 153.06 107.66 152.02 107.24 150.99C107.19 150.87 107.14 150.76 107.09 150.64C106.71 149.72 106.33 148.81 105.92 147.91C105.77 147.57 105.61 147.23 105.45 146.89C105.14 146.21 104.82 145.54 104.5 144.87C104.43 144.72 104.36 144.57 104.29 144.43C104.25 144.34 104.2 144.27 104.15 144.18C94.53 124.87 78.52 108.72 59.41 97.27C58.94 96.99 58.45 97.61 58.84 97.99C65.8 104.79 81.98 123.42 84.13 151.37C84.16 151.72 84.19 152.08 84.21 152.43C84.25 153.04 84.28 153.65 84.3 154.26C84.31 154.58 84.33 154.9 84.34 155.22C84.36 156.03 84.37 156.84 84.37 157.66C84.37 157.8 84.38 157.93 84.37 158.07C84.36 159.03 84.34 159.99 84.3 160.97C84.29 161.26 84.27 161.56 84.25 161.85C84.22 162.54 84.18 163.24 84.12 163.94C84.09 164.31 84.06 164.69 84.02 165.06C83.96 165.69 83.9 166.33 83.83 166.97C83.78 167.37 83.73 167.77 83.68 168.18C83.6 168.81 83.51 169.45 83.42 170.09C83.36 170.49 83.3 170.9 83.23 171.3C83.12 171.97 83 172.65 82.87 173.33C82.8 173.71 82.73 174.09 82.66 174.47C82.5 175.29 82.31 176.12 82.12 176.96C82.07 177.2 82.02 177.44 81.96 177.68C81.71 178.76 81.43 179.84 81.13 180.94C81.05 181.23 80.96 181.53 80.87 181.82C80.64 182.63 80.41 183.44 80.15 184.26C80.02 184.67 79.89 185.08 79.75 185.49C79.52 186.21 79.28 186.92 79.03 187.64C78.87 188.09 78.71 188.54 78.55 188.99C78.29 189.7 78.03 190.4 77.75 191.12C77.58 191.57 77.4 192.02 77.22 192.48C76.93 193.22 76.61 193.96 76.3 194.7C76.12 195.13 75.94 195.56 75.75 195.99C75.37 196.85 74.97 197.72 74.56 198.59C74.41 198.91 74.27 199.22 74.12 199.54C73.55 200.73 72.95 201.93 72.33 203.14C72.2 203.4 72.05 203.66 71.91 203.92C71.41 204.87 70.9 205.83 70.36 206.79C70.12 207.23 69.86 207.67 69.61 208.11C69.15 208.91 68.69 209.71 68.21 210.51C67.92 211 67.62 211.48 67.33 211.97C66.86 212.74 66.37 213.52 65.88 214.3C65.56 214.8 65.24 215.3 64.92 215.8C64.4 216.6 63.86 217.4 63.32 218.21C63 218.69 62.68 219.17 62.34 219.64C61.72 220.54 61.07 221.45 60.42 222.35C60.14 222.74 59.87 223.13 59.58 223.52C58.63 224.82 57.65 226.12 56.63 227.44C56.49 227.62 56.34 227.81 56.19 227.99C55.31 229.12 54.4 230.26 53.47 231.41C53.1 231.86 52.71 232.32 52.34 232.77C51.61 233.66 50.87 234.54 50.1 235.43C49.66 235.95 49.2 236.47 48.74 236.99C48 237.83 47.26 238.68 46.5 239.53C46.02 240.07 45.53 240.61 45.03 241.15C44.25 242 43.45 242.86 42.64 243.72C42.14 244.25 41.65 244.78 41.14 245.31C40.24 246.25 39.32 247.19 38.39 248.13C37.94 248.59 37.5 249.04 37.05 249.49C35.65 250.89 34.22 252.29 32.74 253.71L44.51 260.77L58.82 269.36C62.64 271.65 67.53 271.4 70.99 268.59C82.56 259.23 92.31 248.08 99.59 235.78C99.64 235.7 99.69 235.61 99.74 235.53C100.22 234.78 100.66 234.01 101.09 233.23Z" fill="#2B8A4A"/>
</g>
<mask id="mask5_1_3" style="mask-type:luminance" maskUnits="userSpaceOnUse" x="0" y="0" width="504" height="313">
<path d="M503.8 0H0V312.33H503.8V0Z" fill="white"/>
</mask>
<g mask="url(#mask5_1_3)">
<path d="M225.17 129.96V105.13H221.25C219.06 105.13 217.28 106.97 217.28 109.23V137.22H240.03V129.95H225.17V129.96Z" fill="black"/>
</g>
<mask id="mask6_1_3" style="mask-type:luminance" maskUnits="userSpaceOnUse" x="0" y="0" width="504" height="313">
<path d="M503.8 0H0V312.33H503.8V0Z" fill="white"/>
</mask>
<g mask="url(#mask6_1_3)">
<path d="M256.95 104.64C247.61 104.64 241.57 111.13 241.57 121.18C241.57 131.36 247.46 137.68 256.95 137.68C266.46 137.68 272.37 131.36 272.37 121.18C272.37 111.29 266.17 104.64 256.95 104.64ZM256.95 111.73C263.74 111.73 264.48 118.34 264.48 121.18C264.48 124.76 263.5 130.77 256.95 130.77C250.19 130.77 249.46 124.07 249.46 121.18C249.46 118.34 250.19 111.73 256.95 111.73Z" fill="black"/>
</g>
<mask id="mask7_1_3" style="mask-type:luminance" maskUnits="userSpaceOnUse" x="0" y="0" width="504" height="313">
<path d="M503.8 0H0V312.33H503.8V0Z" fill="white"/>
</mask>
<g mask="url(#mask7_1_3)">
<path d="M277.25 105.13C275.06 105.13 273.28 106.97 273.28 109.23V112.21H282.27V137.22H290.17V112.21H299.16V105.12H277.25V105.13Z" fill="black"/>
</g>
<mask id="mask8_1_3" style="mask-type:luminance" maskUnits="userSpaceOnUse" x="0" y="0" width="504" height="313">
<path d="M503.8 0H0V312.33H503.8V0Z" fill="white"/>
</mask>
<g mask="url(#mask8_1_3)">
<path d="M325.1 112.08V105.13H305.36C302.81 105.18 301.41 106.64 301.41 109.23V137.22H325.1V129.95H309.22V123.75H317.02C318.37 123.75 319.41 123.39 320.11 122.68C320.78 122 321.11 121.01 321.08 119.78V116.93H309.22V112.07H325.1V112.08Z" fill="black"/>
</g>
<mask id="mask9_1_3" style="mask-type:luminance" maskUnits="userSpaceOnUse" x="0" y="0" width="504" height="313">
<path d="M503.8 0H0V312.33H503.8V0Z" fill="white"/>
</mask>
<g mask="url(#mask9_1_3)">
<path d="M353.68 135.7C353.3 135.44 353.09 134.98 353.06 134.34L352.79 128.37C352.64 126.09 352.32 124.59 351.71 123.44C351.29 122.82 350.76 122.29 350.1 121.85C352.29 120.51 353.5 117.98 353.5 114.65C353.5 108.25 350.02 105.13 342.86 105.13H331.32C329.13 105.13 327.35 106.97 327.35 109.23V137.22H335.24V125.41H341.02C344.01 125.41 344.54 125.98 344.75 129.42C344.81 133.15 344.92 134.25 345.03 134.69C345.1 135.49 345.29 136.17 345.61 136.78L345.85 137.22H355.87L353.68 135.7ZM345.52 115.23C345.52 117.53 344.46 118.42 341.75 118.42H335.25V112.09H342.11C344.53 112.08 345.52 112.99 345.52 115.23Z" fill="black"/>
</g>
<mask id="mask10_1_3" style="mask-type:luminance" maskUnits="userSpaceOnUse" x="0" y="0" width="504" height="313">
<path d="M503.8 0H0V312.33H503.8V0Z" fill="white"/>
</mask>
<g mask="url(#mask10_1_3)">
<path d="M369.02 97.53H363.22C361.62 97.43 360.86 98.27 360.52 98.96L357.67 104.31H362.37L369.02 97.53Z" fill="black"/>
</g>
<mask id="mask11_1_3" style="mask-type:luminance" maskUnits="userSpaceOnUse" x="0" y="0" width="504" height="313">
<path d="M503.8 0H0V312.33H503.8V0Z" fill="white"/>
</mask>
<g mask="url(#mask11_1_3)">
<path d="M356.21 109.23V137.22H364.1V105.12H360.18C357.62 105.13 356.21 106.59 356.21 109.23Z" fill="black"/>
</g>
<mask id="mask12_1_3" style="mask-type:luminance" maskUnits="userSpaceOnUse" x="0" y="0" width="504" height="313">
<path d="M503.8 0H0V312.33H503.8V0Z" fill="white"/>
</mask>
<g mask="url(#mask12_1_3)">
<path d="M385.86 105.13H380.26C378.37 105.13 377.08 106.03 376.52 107.7L365.96 137.23H374.42L376.44 131.01H386.99L389 137.23H397.38L385.86 105.13ZM384.7 124.19H378.64L381.66 114.82L384.7 124.19Z" fill="black"/>
</g>
<mask id="mask13_1_3" style="mask-type:luminance" maskUnits="userSpaceOnUse" x="0" y="0" width="504" height="313">
<path d="M503.8 0H0V312.33H503.8V0Z" fill="white"/>
</mask>
<g mask="url(#mask13_1_3)">
<path d="M420.65 113.33H414.18C412.27 113.37 411.22 114.46 411.22 116.4V137.06H419.43C421.48 137.06 423.13 136.9 424.35 136.57C428.85 135.37 431.53 131.11 431.53 125.19C431.53 117.32 427.87 113.33 420.65 113.33ZM425.51 125.19C425.51 129.85 423.98 131.67 420.05 131.67H417.06V118.58H420.64C424.06 118.58 425.51 120.56 425.51 125.19Z" fill="black"/>
</g>
<mask id="mask14_1_3" style="mask-type:luminance" maskUnits="userSpaceOnUse" x="0" y="0" width="504" height="313">
<path d="M503.8 0H0V312.33H503.8V0Z" fill="white"/>
</mask>
<g mask="url(#mask14_1_3)">
<path d="M451.28 118.55V113.32H436.7C434.79 113.36 433.74 114.45 433.74 116.39V137.05H451.29V131.59H439.6V127.13H445.29C446.3 127.13 447.08 126.86 447.6 126.33C448.11 125.82 448.35 125.08 448.33 124.16V122.01H439.6V118.54H451.28V118.55Z" fill="black"/>
</g>
<mask id="mask15_1_3" style="mask-type:luminance" maskUnits="userSpaceOnUse" x="0" y="0" width="504" height="313">
<path d="M503.8 0H0V312.33H503.8V0Z" fill="white"/>
</mask>
<g mask="url(#mask15_1_3)">
<path d="M459.41 131.6V113.32H456.47C454.83 113.32 453.49 114.7 453.49 116.39V137.05H470.34V131.59H459.41V131.6Z" fill="black"/>
</g>
<mask id="mask16_1_3" style="mask-type:luminance" maskUnits="userSpaceOnUse" x="0" y="0" width="504" height="313">
<path d="M503.8 0H0V312.33H503.8V0Z" fill="white"/>
</mask>
<g mask="url(#mask16_1_3)">
<path d="M253.28 152.22V174.41H233.28V152.22H224.89C220.31 152.22 216.59 156.06 216.59 160.79V216H233.28V189.71H253.28V216H269.97V152.22H253.28Z" fill="black"/>
</g>
<mask id="mask17_1_3" style="mask-type:luminance" maskUnits="userSpaceOnUse" x="0" y="0" width="504" height="313">
<path d="M503.8 0H0V312.33H503.8V0Z" fill="white"/>
</mask>
<g mask="url(#mask17_1_3)">
<path d="M311.46 152.22V191.1C311.46 195.17 310.56 198.13 308.79 199.88C307.32 201.33 305.08 202.1 302.23 202.02C295.81 201.95 292.95 198.58 292.95 191.11V152.23H284.73C280.31 152.23 276.43 156.23 276.43 160.8V192.51C276.43 208.46 285.34 216.89 302.21 216.89C318.53 216.89 327.9 208 327.9 192.51V152.23H311.46V152.22Z" fill="black"/>
</g>
<mask id="mask18_1_3" style="mask-type:luminance" maskUnits="userSpaceOnUse" x="0" y="0" width="504" height="313">
<path d="M503.8 0H0V312.33H503.8V0Z" fill="white"/>
</mask>
<g mask="url(#mask18_1_3)">
<path d="M342.65 152.22C337.37 152.22 334.34 155.34 334.34 160.79V216H350.86V152.22H342.65Z" fill="black"/>
</g>
<mask id="mask19_1_3" style="mask-type:luminance" maskUnits="userSpaceOnUse" x="0" y="0" width="504" height="313">
<path d="M503.8 0H0V312.33H503.8V0Z" fill="white"/>
</mask>
<g mask="url(#mask19_1_3)">
<path d="M374.28 200.71V152.23H366.06C361.48 152.23 357.76 156.07 357.76 160.8V216H403.28V200.7H374.28V200.71Z" fill="black"/>
</g>
<mask id="mask20_1_3" style="mask-type:luminance" maskUnits="userSpaceOnUse" x="0" y="0" width="504" height="313">
<path d="M503.8 0H0V312.33H503.8V0Z" fill="white"/>
</mask>
<g mask="url(#mask20_1_3)">
<path d="M448.15 152.22H436.83C432.94 152.22 430.15 154.15 429 157.6L408.12 216H425.83L429.76 203.86H449.55L453.48 216H471.02L448.15 152.22ZM444.73 189.44H434.41L439.54 173.49L444.73 189.44Z" fill="black"/>
</g>
</svg>