<svg xmlns="http://www.w3.org/2000/svg" xmlns:xlink="http://www.w3.org/1999/xlink" viewBox="7 40 157.16 65.44"><defs><style>.cls-1,.cls-14,.cls-6{fill:none;}.cls-2{isolation:isolate;}.cls-3{opacity:0.3;mix-blend-mode:multiply;}.cls-4{clip-path:url(#clip-path);}.cls-5{fill:#1d1d1b;}.cls-14,.cls-6{stroke:#1d1d1b;}.cls-6{stroke-linejoin:round;stroke-width:1.58px;}.cls-7{clip-path:url(#clip-path-2);}.cls-8{fill:#e1251b;}.cls-9{fill:#2d2a26;}.cls-10{fill:#00953b;}.cls-11{fill:#fff;}.cls-12{clip-path:url(#clip-path-3);}.cls-13{fill:url(#Degradado_sin_nombre_1254);}.cls-14{stroke-width:0.29px;}</style><clipPath id="clip-path"><rect class="cls-1" x="8.14" y="47.36" width="151.73" height="52.58"/></clipPath><clipPath id="clip-path-2"><path class="cls-1" d="M129.88,63a12.35,12.35,0,0,0,6.78,15.63,11,11,0,0,0,3.21.77l2.73-.1a11.59,11.59,0,0,0,9-7.62,12.36,12.36,0,0,0-6.79-15.63,11.11,11.11,0,0,0-4.16-.81A11.49,11.49,0,0,0,129.88,63"/></clipPath><clipPath id="clip-path-3"><path class="cls-1" d="M132.26,61.53A12.35,12.35,0,0,0,139,77.16a11.27,11.27,0,0,0,3.21.76l2.73-.1a11.59,11.59,0,0,0,9-7.62,12.37,12.37,0,0,0-6.79-15.63,11.14,11.14,0,0,0-4.16-.8,11.49,11.49,0,0,0-10.75,7.76"/></clipPath><radialGradient id="Degradado_sin_nombre_1254" cx="2505.88" cy="3082.06" r="1.23" gradientTransform="matrix(8.4, -0.32, -0.63, -8.62, -18979.37, 27429.77)" gradientUnits="userSpaceOnUse"><stop offset="0" stop-color="#fff"/><stop offset="0.09" stop-color="#d6d5d4"/><stop offset="0.22" stop-color="#a6a5a2"/><stop offset="0.34" stop-color="#7d7b77"/><stop offset="0.47" stop-color="#5b5954"/><stop offset="0.6" stop-color="#413e39"/><stop offset="0.73" stop-color="#2e2b25"/><stop offset="0.86" stop-color="#23201a"/><stop offset="1" stop-color="#1f1c16"/></radialGradient></defs><g class="cls-2"><g id="Capa_1" data-name="Capa 1"><g class="cls-3"><g class="cls-4"><rect class="cls-5" x="9.11" y="48.33" width="37.47" height="37.47"/><rect class="cls-6" x="9.11" y="48.33" width="37.47" height="37.47"/><rect class="cls-5" x="46.57" y="48.33" width="37.47" height="37.47"/><rect class="cls-6" x="46.57" y="48.33" width="37.47" height="37.47"/><rect class="cls-5" x="84.07" y="48.33" width="37.47" height="37.47"/><rect class="cls-6" x="84.07" y="48.33" width="37.47" height="37.47"/><rect class="cls-5" x="121.43" y="48.33" width="37.47" height="37.47"/><rect class="cls-6" x="121.43" y="48.33" width="37.47" height="37.47"/><polygon class="cls-5" points="36.84 78.07 22.38 78.07 22.38 56.72 26.6 56.72 26.6 74.06 36.84 74.06 36.84 78.07"/><polygon class="cls-6" points="36.84 78.07 22.38 78.07 22.38 56.72 26.6 56.72 26.6 74.06 36.84 74.06 36.84 78.07"/><path class="cls-5" d="M75.62,63a11.16,11.16,0,0,0-2.44-3.53,11.58,11.58,0,0,0-12.37-2.37,11.39,11.39,0,0,0-3.62,2.36A10.9,10.9,0,0,0,54.75,63a10.67,10.67,0,0,0-.9,4.36,10.51,10.51,0,0,0,.9,4.34,11,11,0,0,0,2.44,3.52,11.74,11.74,0,0,0,3.62,2.36,11.49,11.49,0,0,0,8.77,0,11.77,11.77,0,0,0,3.6-2.36,11,11,0,0,0,2.44-3.53,10.89,10.89,0,0,0,0-8.67m-4.68,4.34a5.52,5.52,0,0,1-.45,2.2,5.78,5.78,0,0,1-1.23,1.83,6.15,6.15,0,0,1-1.84,1.24,5.42,5.42,0,0,1-2.22.46A5.49,5.49,0,0,1,63,72.65a6.15,6.15,0,0,1-1.84-1.24,5.78,5.78,0,0,1-1.23-1.83,5.63,5.63,0,0,1,0-4.41,5.85,5.85,0,0,1,1.23-1.82A6.15,6.15,0,0,1,63,62.11a5.49,5.49,0,0,1,2.25-.46,5.42,5.42,0,0,1,2.22.46,6.15,6.15,0,0,1,1.84,1.24,5.85,5.85,0,0,1,1.23,1.82,5.49,5.49,0,0,1,.45,2.21"/><path class="cls-6" d="M75.62,63a11.16,11.16,0,0,0-2.44-3.53,11.58,11.58,0,0,0-12.37-2.37,11.39,11.39,0,0,0-3.62,2.36A10.9,10.9,0,0,0,54.75,63a10.67,10.67,0,0,0-.9,4.36,10.51,10.51,0,0,0,.9,4.34,11,11,0,0,0,2.44,3.52,11.74,11.74,0,0,0,3.62,2.36,11.49,11.49,0,0,0,8.77,0,11.77,11.77,0,0,0,3.6-2.36,11,11,0,0,0,2.44-3.53,10.89,10.89,0,0,0,0-8.67m-4.68,4.34a5.52,5.52,0,0,1-.45,2.2,5.78,5.78,0,0,1-1.23,1.83,6.15,6.15,0,0,1-1.84,1.24,5.42,5.42,0,0,1-2.22.46A5.49,5.49,0,0,1,63,72.65a6.15,6.15,0,0,1-1.84-1.24,5.78,5.78,0,0,1-1.23-1.83,5.63,5.63,0,0,1,0-4.41,5.85,5.85,0,0,1,1.23-1.82A6.15,6.15,0,0,1,63,62.11a5.49,5.49,0,0,1,2.25-.46,5.42,5.42,0,0,1,2.22.46,6.15,6.15,0,0,1,1.84,1.24,5.85,5.85,0,0,1,1.23,1.82,5.49,5.49,0,0,1,.45,2.21"/><polygon class="cls-5" points="111.22 60.41 105.31 60.41 105.31 78.07 101.12 78.07 101.12 60.41 95.21 60.41 95.21 56.72 111.22 56.72 111.22 60.41"/><polygon class="cls-6" points="111.22 60.41 105.31 60.41 105.31 78.07 101.12 78.07 101.12 60.41 95.21 60.41 95.21 56.72 111.22 56.72 111.22 60.41"/><path class="cls-5" d="M151.9,67.38a10.56,10.56,0,0,1-.9,4.33,11,11,0,0,1-2.44,3.53A11.77,11.77,0,0,1,145,77.6a11.49,11.49,0,0,1-8.77,0,11.74,11.74,0,0,1-3.62-2.36,11.16,11.16,0,0,1-2.44-3.52,10.5,10.5,0,0,1-.89-4.34,10.66,10.66,0,0,1,.89-4.36,11.05,11.05,0,0,1,2.44-3.52A11.64,11.64,0,0,1,145,57.14a11.27,11.27,0,0,1,3.6,2.37A11.16,11.16,0,0,1,151,63a10.51,10.51,0,0,1,.9,4.34m-4.14,0a6.83,6.83,0,0,0-.57-2.77,7.38,7.38,0,0,0-1.53-2.27,7.64,7.64,0,0,0-2.3-1.55,6.88,6.88,0,0,0-2.78-.57,7,7,0,0,0-2.81.57,7.59,7.59,0,0,0-2.29,1.55,7.41,7.41,0,0,0-1.54,2.27,7.08,7.08,0,0,0,0,5.52,7.27,7.27,0,0,0,1.54,2.29A7.41,7.41,0,0,0,137.77,74a7,7,0,0,0,2.81.57,6.88,6.88,0,0,0,2.78-.57,7.46,7.46,0,0,0,2.3-1.55,7.24,7.24,0,0,0,1.53-2.29,6.81,6.81,0,0,0,.57-2.75"/><path class="cls-6" d="M151.9,67.38a10.56,10.56,0,0,1-.9,4.33,11,11,0,0,1-2.44,3.53A11.77,11.77,0,0,1,145,77.6a11.49,11.49,0,0,1-8.77,0,11.74,11.74,0,0,1-3.62-2.36,11.16,11.16,0,0,1-2.44-3.52,10.5,10.5,0,0,1-.89-4.34,10.66,10.66,0,0,1,.89-4.36,11.05,11.05,0,0,1,2.44-3.52A11.64,11.64,0,0,1,145,57.14a11.27,11.27,0,0,1,3.6,2.37A11.16,11.16,0,0,1,151,63a10.51,10.51,0,0,1,.9,4.34m-4.14,0a6.83,6.83,0,0,0-.57-2.77,7.38,7.38,0,0,0-1.53-2.27,7.64,7.64,0,0,0-2.3-1.55,6.88,6.88,0,0,0-2.78-.57,7,7,0,0,0-2.81.57,7.59,7.59,0,0,0-2.29,1.55,7.41,7.41,0,0,0-1.54,2.27,7.08,7.08,0,0,0,0,5.52,7.27,7.27,0,0,0,1.54,2.29A7.41,7.41,0,0,0,137.77,74a7,7,0,0,0,2.81.57,6.88,6.88,0,0,0,2.78-.57,7.46,7.46,0,0,0,2.3-1.55,7.24,7.24,0,0,0,1.53-2.29,6.81,6.81,0,0,0,.57-2.75"/><path class="cls-5" d="M129.88,63a12.35,12.35,0,0,0,6.78,15.63,11,11,0,0,0,3.21.77l2.73-.1a11.58,11.58,0,0,0,9-7.63,12.35,12.35,0,0,0-6.79-15.62,11.11,11.11,0,0,0-4.16-.81A11.49,11.49,0,0,0,129.88,63"/><g class="cls-7"><polygon class="cls-5" points="127.7 80.41 155.58 79.34 153.75 54.25 125.87 55.32 127.7 80.41"/><polygon class="cls-6" points="127.7 80.41 155.58 79.34 153.75 54.25 125.87 55.32 127.7 80.41"/></g><path class="cls-6" d="M129.88,63a12.35,12.35,0,0,0,6.78,15.63,11,11,0,0,0,3.21.77l2.73-.1a11.58,11.58,0,0,0,9-7.63,12.35,12.35,0,0,0-6.79-15.62,11.11,11.11,0,0,0-4.16-.81A11.49,11.49,0,0,0,129.88,63"/><path class="cls-5" d="M151.58,71.69a11.37,11.37,0,0,1-14.92,7A12.35,12.35,0,0,1,129.88,63a11.35,11.35,0,0,1,14.91-6.95,12.36,12.36,0,0,1,6.79,15.63"/><path class="cls-6" d="M151.58,71.69a11.37,11.37,0,0,1-14.92,7A12.35,12.35,0,0,1,129.88,63a11.35,11.35,0,0,1,14.91-6.95A12.36,12.36,0,0,1,151.58,71.69Z"/><path class="cls-5" d="M118.38,89.72h4.07a2.9,2.9,0,1,1,0,5.79h-2.08v3.24h-2Zm2,4.25h1.54c.91,0,1.74-.2,1.74-1.35s-.83-1.35-1.74-1.35h-1.54Z"/><path class="cls-6" d="M118.38,89.72h4.07a2.9,2.9,0,1,1,0,5.79h-2.08v3.24h-2Zm2,4.25h1.54c.91,0,1.74-.2,1.74-1.35s-.83-1.35-1.74-1.35h-1.54Z"/><polygon class="cls-5" points="128.39 98.68 128.39 89.69 130.34 89.69 130.34 97.02 134.97 97.02 134.97 98.68 128.39 98.68"/><polygon class="cls-6" points="128.39 98.68 128.39 89.69 130.34 89.69 130.34 97.02 134.97 97.02 134.97 98.68 128.39 98.68"/><path class="cls-5" d="M145.51,95.33c0,2.44-1.44,3.63-3.85,3.63s-3.85-1.16-3.85-3.63V89.72h2v5.61c0,1,.25,2,1.86,2,1.41,0,1.87-.6,1.87-2V89.72h2Z"/><path class="cls-6" d="M145.51,95.33c0,2.44-1.44,3.63-3.85,3.63s-3.85-1.16-3.85-3.63V89.72h2v5.61c0,1,.25,2,1.86,2,1.41,0,1.87-.6,1.87-2V89.72h2Z"/><path class="cls-5" d="M150.34,96.07c.2,1.19,1.27,1.35,2,1.35s1.76-.2,1.76-1.12c0-1.93-5.38-.69-5.38-4.06,0-1.86,1.75-2.73,3.38-2.73,1.88,0,3.61.82,3.61,2.9l-1.92-.27c-.24-1-1.16-1.09-1.78-1.09s-1.37.26-1.37,1,.43.83,2.7,1.37c.67.16,2.68.58,2.68,2.63,0,1.65-1.29,2.89-3.76,2.89-2,0-3.84-1-3.84-3.21Z"/><path class="cls-6" d="M150.34,96.07c.2,1.19,1.27,1.35,2,1.35s1.76-.2,1.76-1.12c0-1.93-5.38-.69-5.38-4.06,0-1.86,1.75-2.73,3.38-2.73,1.88,0,3.61.82,3.61,2.9l-1.92-.27c-.24-1-1.16-1.09-1.78-1.09s-1.37.26-1.37,1,.43.83,2.7,1.37c.67.16,2.68.58,2.68,2.63,0,1.65-1.29,2.89-3.76,2.89-2,0-3.84-1-3.84-3.21Z"/><path class="cls-5" d="M138.63,70.34a2.6,2.6,0,0,0,.62,1.39,1.82,1.82,0,0,0,1.36.48,1.8,1.8,0,0,0,1.55-.72,2.93,2.93,0,0,0,.54-1.81,3.22,3.22,0,0,0-.5-1.82,1.78,1.78,0,0,0-1.57-.74,2.73,2.73,0,0,0-.86.13,1.69,1.69,0,0,0-1,.86L136.32,68l1-7.76H145v2.34h-5.74l-.5,3.07a6,6,0,0,1,1-.55,4.22,4.22,0,0,1,1.47-.22,4.24,4.24,0,0,1,4.33,4.58,5.36,5.36,0,0,1-1.25,3.47,4.53,4.53,0,0,1-3.73,1.53,5,5,0,0,1-3.29-1.07,4.16,4.16,0,0,1-1.43-3Z"/><path class="cls-6" d="M138.63,70.34a2.6,2.6,0,0,0,.62,1.39,1.82,1.82,0,0,0,1.36.48,1.8,1.8,0,0,0,1.55-.72,2.93,2.93,0,0,0,.54-1.81,3.22,3.22,0,0,0-.5-1.82,1.78,1.78,0,0,0-1.57-.74,2.73,2.73,0,0,0-.86.13,1.69,1.69,0,0,0-1,.86L136.32,68l1-7.76H145v2.34h-5.74l-.5,3.07a6,6,0,0,1,1-.55,4.22,4.22,0,0,1,1.47-.22,4.24,4.24,0,0,1,4.33,4.58,5.36,5.36,0,0,1-1.25,3.47,4.53,4.53,0,0,1-3.73,1.53,5,5,0,0,1-3.29-1.07,4.16,4.16,0,0,1-1.43-3Z"/></g></g><rect class="cls-8" x="11.5" y="46.85" width="37.47" height="37.47"/><rect class="cls-9" x="48.95" y="46.85" width="37.47" height="37.47"/><rect class="cls-10" x="86.45" y="46.85" width="37.47" height="37.47"/><rect class="cls-8" x="123.81" y="46.85" width="37.47" height="37.47"/><polygon class="cls-11" points="39.22 76.58 24.76 76.58 24.76 55.23 28.98 55.23 28.98 72.58 39.22 72.58 39.22 76.58"/><path class="cls-11" d="M78,61.55A11.27,11.27,0,0,0,75.56,58a11.55,11.55,0,0,0-16,0,10.94,10.94,0,0,0-2.44,3.53,11,11,0,0,0,0,8.7,11,11,0,0,0,2.44,3.51,11.59,11.59,0,0,0,3.62,2.37,11.49,11.49,0,0,0,8.77,0,11.61,11.61,0,0,0,3.6-2.37A10.9,10.9,0,0,0,78,70.23a10.91,10.91,0,0,0,0-8.68m-4.68,4.34a5.56,5.56,0,0,1-.45,2.21,5.78,5.78,0,0,1-1.23,1.83,6.15,6.15,0,0,1-1.84,1.24,5.66,5.66,0,0,1-4.47,0,5.86,5.86,0,0,1-1.83-1.24,5.64,5.64,0,0,1-1.24-1.83,5.56,5.56,0,0,1-.45-2.21,5.49,5.49,0,0,1,.45-2.21,5.71,5.71,0,0,1,1.24-1.82,5.86,5.86,0,0,1,1.83-1.24,5.66,5.66,0,0,1,4.47,0,6.15,6.15,0,0,1,1.84,1.24,5.85,5.85,0,0,1,1.23,1.82,5.49,5.49,0,0,1,.45,2.21"/><polygon class="cls-11" points="113.6 58.92 107.69 58.92 107.69 76.58 103.5 76.58 103.5 58.92 97.59 58.92 97.59 55.23 113.6 55.23 113.6 58.92"/><path class="cls-11" d="M154.28,65.89a10.61,10.61,0,0,1-.9,4.34,10.9,10.9,0,0,1-2.44,3.52,11.61,11.61,0,0,1-3.6,2.37,11.49,11.49,0,0,1-8.77,0A11.59,11.59,0,0,1,135,73.75a11.12,11.12,0,0,1-2.44-3.51,11.08,11.08,0,0,1,0-8.7A11.1,11.1,0,0,1,135,58a11.41,11.41,0,0,1,18.43,3.54,10.54,10.54,0,0,1,.9,4.34m-4.14,0a6.75,6.75,0,0,0-.57-2.76A7.27,7.27,0,0,0,148,60.86a7.46,7.46,0,0,0-2.3-1.55,6.73,6.73,0,0,0-2.78-.58,6.8,6.8,0,0,0-2.81.58,7.3,7.3,0,0,0-2.29,1.55,7.13,7.13,0,0,0-1.54,2.27,6.91,6.91,0,0,0-.56,2.76,7,7,0,0,0,.56,2.76,7.17,7.17,0,0,0,1.54,2.28,7.3,7.3,0,0,0,2.29,1.55,7,7,0,0,0,2.81.58,6.89,6.89,0,0,0,2.78-.58,7.46,7.46,0,0,0,2.3-1.55,7.31,7.31,0,0,0,1.53-2.28,6.86,6.86,0,0,0,.57-2.76"/><g class="cls-12"><polygon class="cls-13" points="128.25 53.83 156.13 52.76 157.97 77.86 130.08 78.93 128.25 53.83"/></g><path class="cls-14" d="M154,70.2a11.37,11.37,0,0,1-14.92,7,12.35,12.35,0,0,1-6.78-15.63,11.36,11.36,0,0,1,14.91-7A12.37,12.37,0,0,1,154,70.2Z"/><path class="cls-9" d="M120.76,88.24h4.07a2.9,2.9,0,1,1,0,5.79h-2.08v3.23h-2Zm2,4.24h1.54c.91,0,1.74-.2,1.74-1.35s-.83-1.35-1.74-1.35h-1.54Z"/><polygon class="cls-9" points="130.77 97.2 130.77 88.2 132.72 88.2 132.72 95.53 137.35 95.53 137.35 97.2 130.77 97.2"/><path class="cls-9" d="M147.89,93.85c0,2.44-1.44,3.63-3.85,3.63s-3.85-1.16-3.85-3.63V88.24h2v5.61c0,1,.25,2,1.86,2,1.41,0,1.87-.61,1.87-2V88.24h2Z"/><path class="cls-9" d="M152.72,94.58c.2,1.19,1.27,1.36,2,1.36s1.76-.21,1.76-1.13c0-1.92-5.38-.68-5.38-4.06,0-1.85,1.75-2.73,3.38-2.73,1.88,0,3.61.82,3.61,2.91l-1.92-.28c-.24-1.05-1.16-1.08-1.78-1.08s-1.37.26-1.37,1,.43.82,2.7,1.36c.67.17,2.68.59,2.68,2.63,0,1.66-1.29,2.9-3.76,2.9-2,0-3.84-1-3.84-3.21Z"/><path class="cls-11" d="M141,68.85a2.68,2.68,0,0,0,.62,1.39,1.76,1.76,0,0,0,1.35.49,1.81,1.81,0,0,0,1.56-.72,3,3,0,0,0,.54-1.82,3.18,3.18,0,0,0-.5-1.81,1.78,1.78,0,0,0-1.57-.74,2.75,2.75,0,0,0-.86.12,1.75,1.75,0,0,0-1,.87l-2.47-.12,1-7.76h7.72V61.1h-5.73l-.5,3.07a6,6,0,0,1,1-.55,4.2,4.2,0,0,1,1.47-.23A4.24,4.24,0,0,1,148,68a5.37,5.37,0,0,1-1.25,3.48A4.53,4.53,0,0,1,143,73a4.92,4.92,0,0,1-3.29-1.08,4.13,4.13,0,0,1-1.43-3.05Z"/></g></g></svg>