<svg xmlns="http://www.w3.org/2000/svg" id="Capa_1" data-name="Capa 1" viewBox="20 30 143.16 85.44"><defs><style>.cls-1{fill:#1d1d1b;}.cls-2{fill:#e4221c;}</style></defs><polygon class="cls-1" points="41.06 94.2 40.93 54.75 28.93 57.86 29.08 108.7 57.84 101.2 57.83 89.81 41.06 94.2"/><path class="cls-1" d="M76.43,56.37A16.66,16.66,0,0,0,72,57a21.63,21.63,0,0,0-12.61,9.46,23.23,23.23,0,0,0-3.14,16.39c1.53,8.75,8,14.63,16,14.63a16.51,16.51,0,0,0,4.38-.6C87.87,93.82,94.5,83,92.42,71.07c-1.53-8.79-8-14.7-16-14.7M75,86.24a6.31,6.31,0,0,1-1.68.24c-2.87,0-4.92-2.35-5.63-6.43-1-5.91,1.52-11.28,5.94-12.47a5.64,5.64,0,0,1,1.49-.21c2.86,0,5.07,2.46,5.76,6.42,1,5.91-1.5,11.27-5.88,12.45"/><path class="cls-1" d="M150,55.94c-1.54-8.79-8-14.69-16-14.69a17,17,0,0,0-4.39.59A21.63,21.63,0,0,0,117,51.3a22.25,22.25,0,0,0-1.91,3.81V52.54h-.8l-.06-5.63-6.91,1.87-.12-10.07-11.2,3,0,10.08L91.84,53,92,63.58l4.15-1.12V75.89c0,4.35,1.14,7.79,3.31,10a9.4,9.4,0,0,0,6.84,2.65,16.47,16.47,0,0,0,4.18-.6,19.36,19.36,0,0,0,3.45-1.39l.94-.48-.07-11-2.41,1.14a14.16,14.16,0,0,1-2,.8,5.22,5.22,0,0,1-1.3.2c-.57,0-1.63,0-1.64-3.1V59.4l6.94-1.88a23.52,23.52,0,0,0-.44,10.17c1.53,8.75,8,14.63,16,14.63a16.92,16.92,0,0,0,4.38-.59c11.22-3,17.85-13.88,15.77-25.79m-35.66,1.37h0l0,0Zm18.27,13.81a6.72,6.72,0,0,1-1.68.23c-2.87,0-4.92-2.34-5.64-6.43-1-5.91,1.53-11.27,6-12.47a6,6,0,0,1,1.49-.2c2.86,0,5.06,2.46,5.76,6.42,1,5.91-1.5,11.26-5.88,12.45"/><path class="cls-1" d="M102.23,93.38l5.35-1.44a6.52,6.52,0,0,1,1.71-.24,4.29,4.29,0,0,1,4.42,3.75c.58,3.31-1.47,6.19-5.09,7.18l-2.51.67,0,5.47-3.87,1Zm3.88,6.12,1.77-.48c2.05-.55,2.13-1.66,2-2.56a1,1,0,0,0-1.09-.95,2.44,2.44,0,0,0-.57.08l-2.1.57Z"/><polygon class="cls-1" points="115.4 89.82 119.24 88.78 119.28 101.39 125.68 99.66 125.69 103.48 115.45 106.25 115.4 89.82"/><path class="cls-1" d="M131.6,101.91c-2.87,0-4.52-2.14-4.53-5.86V86.67l3.84-1,0,10c0,2.51.94,2.51,1.29,2.51a2.53,2.53,0,0,0,.67-.1c.9-.24,2.1-.87,2.09-3.48l0-10,3.89-1V94.23c0,3.9-1.84,6.45-5.33,7.4a7.69,7.69,0,0,1-1.93.28"/><path class="cls-1" d="M145.44,98.11a5,5,0,0,1-5.18-4.17l-.13-.59,3.78-1,.16.63a1.67,1.67,0,0,0,1.81,1.41A4.65,4.65,0,0,0,147,94.2c1.43-.37,2.26-1.15,2.11-2-.1-.58-.66-.75-3.19-.93-2.71-.22-4.61-.94-5.11-3.77s1.59-5.39,4.92-6.29a7.48,7.48,0,0,1,2-.28,4.52,4.52,0,0,1,4.67,4l.08.56-3.8,1-.16-.62a1.27,1.27,0,0,0-1.34-1.14,3.47,3.47,0,0,0-.85.12c-.86.24-1.81.79-1.67,1.6.08.41.13.71,2.42.87,2.69.2,5.36.66,5.9,3.8s-1.55,5.67-5.18,6.65a9.27,9.27,0,0,1-2.36.34"/><polygon class="cls-2" points="59.2 97.51 59.19 87.17 42.41 91.56 42.28 52.12 31.82 54.95 31.97 104.73 59.2 97.51"/><path class="cls-2" d="M116.17,82.41l-.06-9.9-1.69.8a14.35,14.35,0,0,1-2.1.83,5.87,5.87,0,0,1-1.43.22c-1,0-2.14-.41-2.16-3.61v-15l7-1.89-.11-9.55-6.9,1.87-.13-10.06L98.41,38.83l0,10.09-4.24,1.14.1,9.55,4.16-1.12v14.1c0,4.2,1.08,7.52,3.15,9.6a8.92,8.92,0,0,0,6.49,2.49,15.46,15.46,0,0,0,4-.58,19.51,19.51,0,0,0,3.35-1.35Z"/><path class="cls-2" d="M93.78,67.85c-1.49-8.53-7.71-14.27-15.49-14.27a16.49,16.49,0,0,0-4.26.58A21.12,21.12,0,0,0,61.72,63.4a22.73,22.73,0,0,0-3.07,16c1.48,8.5,7.71,14.2,15.48,14.2a16.42,16.42,0,0,0,4.26-.57c11-3,17.43-13.57,15.39-25.21M77,83.43a6.88,6.88,0,0,1-1.81.26c-3.14,0-5.38-2.5-6.14-6.86-1.08-6.17,1.63-11.78,6.31-13A6.2,6.2,0,0,1,77,63.56c3.12,0,5.52,2.62,6.26,6.84,1.07,6.17-1.61,11.78-6.25,13"/><path class="cls-2" d="M151.39,52.73c-1.49-8.54-7.71-14.27-15.49-14.27a16.47,16.47,0,0,0-4.26.57,21.12,21.12,0,0,0-12.31,9.24,22.76,22.76,0,0,0-3.07,16c1.48,8.49,7.7,14.2,15.48,14.2a16.36,16.36,0,0,0,4.25-.58c11-3,17.43-13.56,15.4-25.2M134.64,68.31a6.86,6.86,0,0,1-1.81.25c-3.14,0-5.38-2.5-6.14-6.85-1.08-6.18,1.63-11.79,6.31-13.05a6.22,6.22,0,0,1,1.63-.23c3.12,0,5.52,2.62,6.26,6.84,1.07,6.18-1.61,11.78-6.25,13"/><path class="cls-1" d="M60.21,85.84l-16.78,4.4L43.3,50.78,30.8,54.16l.15,51.9L60.22,98.3ZM42.28,52.11l.13,39.45,16.78-4.39V97.51L32,104.74l-.15-49.8Z"/><path class="cls-1" d="M117.12,70.91,114,72.38a12.25,12.25,0,0,1-1.94.77,4.63,4.63,0,0,1-1.16.18c-.42,0-1.12,0-1.14-2.58l0-14.26,6.68-1.65.3-.92-.12-11-6.91,1.87-.12-10.06-12.22,3.3.05,10.09-4.24,1.14.12,11.66,4.14-1.12V72.59c0,4.48,1.18,8,3.45,10.32a9.93,9.93,0,0,0,7.21,2.8,16.55,16.55,0,0,0,4.31-.62A20.65,20.65,0,0,0,116,83.66L117.2,83Zm-9,13.77a8.94,8.94,0,0,1-6.49-2.49c-2.07-2.08-3.16-5.4-3.15-9.6V58.49l-4.16,1.12-.1-9.55,4.24-1.14,0-10.09,10.19-2.75.12,10.06,6.9-1.87.11,9.55-7,1.89v15c0,3.2,1.16,3.61,2.16,3.61a5.87,5.87,0,0,0,1.43-.22,14.35,14.35,0,0,0,2.1-.83l1.69-.8.06,9.9-.65.34a19.32,19.32,0,0,1-3.36,1.35,15.33,15.33,0,0,1-4,.58"/><path class="cls-1" d="M94.79,67.68c-1.58-9.05-8.21-15.12-16.5-15.12a17.57,17.57,0,0,0-4.52.61,22.09,22.09,0,0,0-12.91,9.68,23.77,23.77,0,0,0-3.22,16.76c1.57,9,8.2,15,16.49,15A17.09,17.09,0,0,0,78.65,94c11.48-3.1,18.26-14.19,16.14-26.36M74.13,93.63c-7.78,0-14-5.7-15.48-14.2a22.73,22.73,0,0,1,3.07-16A21.12,21.12,0,0,1,74,54.16a16.49,16.49,0,0,1,4.26-.58c7.78,0,14,5.74,15.49,14.27,2,11.64-4.44,22.24-15.4,25.21a16.29,16.29,0,0,1-4.25.57"/><path class="cls-1" d="M77,63.56a6.2,6.2,0,0,0-1.63.22c-4.68,1.27-7.39,6.88-6.31,13,.76,4.36,3,6.86,6.14,6.86A6.88,6.88,0,0,0,77,83.43c4.64-1.25,7.32-6.86,6.24-13-.73-4.22-3.13-6.84-6.25-6.84m-1.8,19.1c-2.6,0-4.47-2.19-5.14-6-1-5.65,1.41-10.76,5.58-11.89A5,5,0,0,1,77,64.58c2.59,0,4.6,2.3,5.25,6,1,5.65-1.38,10.75-5.51,11.87a6.06,6.06,0,0,1-1.54.21"/><path class="cls-1" d="M152.4,52.55c-1.58-9-8.21-15.11-16.5-15.11a17.14,17.14,0,0,0-4.52.61,22,22,0,0,0-12.91,9.68,23.75,23.75,0,0,0-3.22,16.75c1.57,9,8.2,15,16.49,15a17.51,17.51,0,0,0,4.52-.61c11.48-3.11,18.26-14.19,16.14-26.37m-20.66,26c-7.78,0-14-5.71-15.48-14.21a22.74,22.74,0,0,1,3.07-16A21.12,21.12,0,0,1,131.64,39a16.47,16.47,0,0,1,4.26-.57c7.78,0,14,5.73,15.49,14.27,2,11.64-4.44,22.24-15.4,25.2a16.3,16.3,0,0,1-4.25.58"/><path class="cls-1" d="M134.63,48.43a6.22,6.22,0,0,0-1.63.23c-4.68,1.26-7.39,6.87-6.31,13.05.76,4.35,3,6.85,6.14,6.85a6.86,6.86,0,0,0,1.81-.25c4.64-1.26,7.32-6.86,6.25-13-.74-4.21-3.14-6.84-6.26-6.84m-1.8,19.11c-2.6,0-4.47-2.19-5.14-6-1-5.65,1.41-10.76,5.58-11.88a5,5,0,0,1,1.36-.19c2.59,0,4.6,2.29,5.25,6,1,5.65-1.38,10.75-5.51,11.87a5.67,5.67,0,0,1-1.54.22"/></svg>