<svg xmlns="http://www.w3.org/2000/svg" xmlns:xlink="http://www.w3.org/1999/xlink" version="1.1" id="Capa_1" x="0px" y="0px" viewBox="0 0 375.5 162" style="enable-background:new 0 0 375.5 162;" xml:space="preserve">
<style type="text/css">
	.st0{fill:#1D1D1B;}
	.st1{fill:#FCC000;}
</style>
<g>
	<g>
		<path class="st0" d="M80.5,91.2l0.2,29.4c0,3.4,0.3,6.7,1.1,9.4c2.6,9.2,9.8,13.5,19.1,10.9c4.5-1.3,8-4.2,10.5-7.5    c0.1-0.1,0.1-0.1,0.2-0.2c0.1-0.1,0.1-0.1,0.2-0.2c0.1-0.1,0.1-0.1,0.2-0.2c0.1-0.1,0.1-0.1,0.2-0.2c0.1-0.1,0.1-0.1,0.2-0.2    c0.1-0.1,0.1-0.1,0.2-0.2c0.1-0.1,0.1-0.1,0.2-0.2c0.1-0.1,0.1-0.1,0.2-0.2c0.1-0.1,0.1-0.1,0.2-0.2c0.1-0.1,0.1-0.1,0.2-0.2    c0.1-0.1,0.1-0.1,0.2-0.2c0.1-0.1,0.1-0.1,0.2-0.2c0.1-0.1,0.1-0.1,0.2-0.2l0.1,5.6l18-5l3.5-4.5l-0.4-54l-18,5l-3.5,4.5l0.1,28.6    c0,2.3-0.2,4.4-0.8,6.1c-0.7,0.5-1.6,0.8-2.6,1.1c-3.8,1.1-6.3-0.3-7.2-3.7c-0.3-1.1-0.5-2.9-0.5-4.3L102,81.7l-18,5L80.5,91.2z"/>
		<path class="st0" d="M75.6,131.4c4.8-9,6.3-19.5,3.6-29.1c-4.6-16.5-20.9-25.6-39.7-20.3c-9.4,2.6-16.8,8-21.9,14.8    c-0.1,0.1-0.1,0.1-0.2,0.2c-0.1,0.1-0.1,0.1-0.2,0.2c-0.1,0.1-0.1,0.1-0.2,0.2c-0.1,0.1-0.1,0.1-0.2,0.2c-0.1,0.1-0.1,0.1-0.2,0.2    c-0.1,0.1-0.1,0.1-0.2,0.2c-0.1,0.1-0.1,0.1-0.2,0.2c-0.1,0.1-0.1,0.1-0.2,0.2c-0.1,0.1-0.1,0.1-0.2,0.2c-0.1,0.1-0.1,0.1-0.2,0.2    c-0.1,0.1-0.1,0.1-0.2,0.2c-0.1,0.1-0.1,0.1-0.2,0.2c-0.1,0.1-0.1,0.1-0.2,0.2c-0.1,0.1-0.1,0.1-0.2,0.2c-0.1,0.1-0.1,0.1-0.2,0.2    c-0.1,0.1-0.1,0.1-0.2,0.2c-0.1,0.1-0.1,0.1-0.2,0.2c-0.1,0.1-0.1,0.1-0.2,0.2c-0.1,0.1-0.1,0.1-0.2,0.2c-0.1,0.1-0.1,0.1-0.2,0.2    c-7.6,9.9-10.3,22.9-7,34.7c4.6,16.5,20.9,25.6,39.7,20.3c5.9-1.6,11-4.4,15.3-8l6,5.2l10.7-12.1l0,0l0.2-0.2l0,0l0.2-0.2l0,0    l0.2-0.2l0,0l0.2-0.2l0,0l0.2-0.2l0,0l0.2-0.2l0,0l0.2-0.2l0,0l0.2-0.2l0,0l0.2-0.2l0,0l0.2-0.2l0,0l0.2-0.2l0,0l0.2-0.2l0,0    l0.2-0.2l0,0l0.2-0.2l0,0l0.2-0.2l0,0l0.2-0.2l0,0l0.2-0.2l0,0l0.2-0.2l0,0l0.2-0.2l0,0l0.2-0.2l0,0l0.2-0.2L75.6,131.4z     M52.8,113.3L42,125.5l0,0l-0.2,0.2l0,0l-0.2,0.2l0,0l-0.2,0.2l0,0l-0.2,0.2l0,0l-0.2,0.2l0,0l-0.2,0.2l0,0l-0.2,0.2l0,0l-0.2,0.2    l0,0l-0.2,0.2l0,0l-0.2,0.2l0,0l-0.2,0.2l0,0l-0.2,0.2l0,0l-0.2,0.2l0,0l-0.2,0.2l0,0l-0.2,0.2l0,0l-0.2,0.2l0,0l-0.2,0.2l0,0    l-0.2,0.2l0,0l-0.2,0.2l0,0l-0.2,0.2l0,0l-0.2,0.2l7.4,5.6c-8.5,1.7-14.7-3-16.9-10.9c-1.5-5.5-0.8-12.1,2.2-17.4    c2.1-2,4.6-3.5,7.6-4.3c9.4-2.6,16.2,2.1,18.5,10.5c0.4,1.4,0.6,2.9,0.7,4.4L52.8,113.3z"/>
		<path class="st0" d="M228,45.2c2.6-0.7,5.1-2.4,6.8-4.6c0.1-0.1,0.1-0.1,0.2-0.2c0.1-0.1,0.1-0.1,0.2-0.2c0.1-0.1,0.1-0.1,0.2-0.2    c0.1-0.1,0.1-0.1,0.2-0.2c0.1-0.1,0.1-0.1,0.2-0.2c0.1-0.1,0.1-0.1,0.2-0.2c0.1-0.1,0.1-0.1,0.2-0.2c0.1-0.1,0.1-0.1,0.2-0.2    c0.1-0.1,0.1-0.1,0.2-0.2c0.1-0.1,0.1-0.1,0.2-0.2c0.1-0.1,0.1-0.1,0.2-0.2c0.1-0.1,0.1-0.1,0.2-0.2c0.1-0.1,0.1-0.1,0.2-0.2    c0.1-0.1,0.1-0.1,0.2-0.2c0.1-0.1,0.1-0.1,0.2-0.2c0.1-0.1,0.1-0.1,0.2-0.2c0.1-0.1,0.1-0.1,0.2-0.2c0.1-0.1,0.1-0.1,0.2-0.2    c0.1-0.1,0.1-0.1,0.2-0.2c0.1-0.1,0.1-0.1,0.2-0.2c1.7-2.1,2.9-4.7,3-7.2c0.2-5.1-3.8-8.1-9-6.8c-2.6,0.7-5.1,2.4-6.8,4.6    c-0.1,0.1-0.1,0.1-0.2,0.2c-0.1,0.1-0.1,0.1-0.2,0.2c-0.1,0.1-0.1,0.1-0.2,0.2c-0.1,0.1-0.1,0.1-0.2,0.2c-0.1,0.1-0.1,0.1-0.2,0.2    c-0.1,0.1-0.1,0.1-0.2,0.2c-0.1,0.1-0.1,0.1-0.2,0.2c-0.1,0.1-0.1,0.1-0.2,0.2c-0.1,0.1-0.1,0.1-0.2,0.2c-0.1,0.1-0.1,0.1-0.2,0.2    c-0.1,0.1-0.1,0.1-0.2,0.2c-0.1,0.1-0.1,0.1-0.2,0.2c-0.1,0.1-0.1,0.1-0.2,0.2c-0.1,0.1-0.1,0.1-0.2,0.2c-0.1,0.1-0.1,0.1-0.2,0.2    c-0.1,0.1-0.1,0.1-0.2,0.2c-0.1,0.1-0.1,0.1-0.2,0.2c-0.1,0.1-0.1,0.1-0.2,0.2c-0.1,0.1-0.1,0.1-0.2,0.2c-0.1,0.1-0.1,0.1-0.2,0.2    c-1.7,2.1-2.9,4.7-3,7.2C218.8,43.5,222.9,46.5,228,45.2"/>
		<path class="st0" d="M151.7,44.4c-2.6,0.7-5.1,2.4-6.8,4.6c-0.1,0.1-0.1,0.1-0.2,0.2c-0.1,0.1-0.1,0.1-0.2,0.2    c-0.1,0.1-0.1,0.1-0.2,0.2c-0.1,0.1-0.1,0.1-0.2,0.2c-0.1,0.1-0.1,0.1-0.2,0.2c-0.1,0.1-0.1,0.1-0.2,0.2c-0.1,0.1-0.1,0.1-0.2,0.2    c-0.1,0.1-0.1,0.1-0.2,0.2c-0.1,0.1-0.1,0.1-0.2,0.2c-0.1,0.1-0.1,0.1-0.2,0.2c-0.1,0.1-0.1,0.1-0.2,0.2c-0.1,0.1-0.1,0.1-0.2,0.2    c-0.1,0.1-0.1,0.1-0.2,0.2c-0.1,0.1-0.1,0.1-0.2,0.2c-0.1,0.1-0.1,0.1-0.2,0.2c-0.1,0.1-0.1,0.1-0.2,0.2c-0.1,0.1-0.1,0.1-0.2,0.2    c-0.1,0.1-0.1,0.1-0.2,0.2c-0.1,0.1-0.1,0.1-0.2,0.2c-0.1,0.1-0.1,0.1-0.2,0.2c-1.7,2.1-2.9,4.7-3,7.2c-0.2,5.1,3.8,8.1,9,6.8    c2.6-0.7,5.1-2.4,6.8-4.6c0.1-0.1,0.1-0.1,0.2-0.2c0.1-0.1,0.1-0.1,0.2-0.2c0.1-0.1,0.1-0.1,0.2-0.2c0.1-0.1,0.1-0.1,0.2-0.2    c0.1-0.1,0.1-0.1,0.2-0.2c0.1-0.1,0.1-0.1,0.2-0.2c0.1-0.1,0.1-0.1,0.2-0.2c0.1-0.1,0.1-0.1,0.2-0.2c0.1-0.1,0.1-0.1,0.2-0.2    c0.1-0.1,0.1-0.1,0.2-0.2c0.1-0.1,0.1-0.1,0.2-0.2c0.1-0.1,0.1-0.1,0.2-0.2c0.1-0.1,0.1-0.1,0.2-0.2c0.1-0.1,0.1-0.1,0.2-0.2    c0.1-0.1,0.1-0.1,0.2-0.2c0.1-0.1,0.1-0.1,0.2-0.2c0.1-0.1,0.1-0.1,0.2-0.2c0.1-0.1,0.1-0.1,0.2-0.2c0.1-0.1,0.1-0.1,0.2-0.2    c0.1-0.1,0.1-0.1,0.2-0.2c1.7-2.1,2.9-4.7,3-7.2C160.8,46.1,156.8,43.1,151.7,44.4"/>
		<polygon class="st0" points="137.2,75.4 137.6,129.5 155.5,124.5 159,119.9 158.7,65.9 140.8,70.9   "/>
		<path class="st0" d="M371,60.9l-0.2-29.8c0-2.7-0.3-5.2-1-7.5c-2.8-10-11.9-13.9-27.3-9.6c-7.4,2.1-14.4,5.3-19.3,8.7l-3.5,4.5    l6.1,12.1c3.2-2.4,8.3-5,13.1-6.4c5.9-1.6,9-0.5,10.1,2.4c-3.1,0.2-6.2,0.7-9.4,1.6c-6.8,1.9-11.9,5.1-15,9.3    c-0.1,0.1-0.1,0.1-0.2,0.2c-0.1,0.1-0.1,0.1-0.2,0.2c-0.1,0.1-0.1,0.1-0.2,0.2c-0.1,0.1-0.1,0.1-0.2,0.2c-0.1,0.1-0.1,0.1-0.2,0.2    c-0.1,0.1-0.1,0.1-0.2,0.2c-0.1,0.1-0.1,0.1-0.2,0.2c-0.1,0.1-0.1,0.1-0.2,0.2c-0.1,0.1-0.1,0.1-0.2,0.2c-0.1,0.1-0.1,0.1-0.2,0.2    c-0.1,0.1-0.1,0.1-0.2,0.2c-0.1,0.1-0.1,0.1-0.2,0.2c-0.1,0.1-0.1,0.1-0.2,0.2c-0.1,0.1-0.1,0.1-0.2,0.2c-0.1,0.1-0.1,0.1-0.2,0.2    c-0.1,0.1-0.1,0.1-0.2,0.2c-0.1,0.1-0.1,0.1-0.2,0.2c-0.1,0.1-0.1,0.1-0.2,0.2c-0.1,0.1-0.1,0.1-0.2,0.2c-0.1,0.1-0.1,0.1-0.2,0.2    c-3.2,4.2-4.3,9.3-2.7,14.9c2.3,8.4,9.7,12,18.1,9.7c4.9-1.4,8.3-4,11.1-7.8c0.1-0.1,0.1-0.1,0.2-0.2c0.1-0.1,0.1-0.1,0.2-0.2    c0.1-0.1,0.1-0.1,0.2-0.2c0.1-0.1,0.1-0.1,0.2-0.2c0.1-0.1,0.1-0.1,0.2-0.2c0.1-0.1,0.1-0.1,0.2-0.2c0.1-0.1,0.1-0.1,0.2-0.2    c0.1-0.1,0.1-0.1,0.2-0.2c0.1-0.1,0.1-0.1,0.2-0.2c0.1-0.1,0.1-0.1,0.2-0.2c0.1-0.1,0.1-0.1,0.2-0.2c0,0,0,0,0,0l0.1,5.5l17.7-4.9    L371,60.9z M350,49.9c0,2.1-0.5,4.1-1.3,5.9c-0.9,0.7-2,1.3-3.1,1.6c-3,0.8-5.6-0.3-6.4-3.2c-0.4-1.3-0.4-2.5-0.1-3.6    c1.1-0.7,2.4-1.3,3.9-1.7c2.5-0.7,4.9-0.9,7-0.8L350,49.9z"/>
		<polygon class="st0" points="313.8,80.4 295.8,85.4 295.4,14.5 295.4,14.5 295.4,12.5 295.6,12.3 295.6,12.3 295.6,12.3     295.7,12.1 295.7,12.1 295.9,11.9 296.2,11.4 296.2,11.4 296.4,11.2 296.4,11.2 296.6,11 296.9,10.6 296.9,10.6 297.1,10.3     297.1,10.3 297.1,10.3 297.2,10.1 297.2,10.1 297.2,10.1 297.4,9.9 297.6,9.7 297.7,9.5 297.7,9.5 297.9,9.3 297.9,9.3 298.1,9     298.1,9 298.2,8.8 298.4,8.6 298.4,8.6 298.6,8.4 298.6,8.4 298.7,8.2 298.9,8 316.9,3 317.3,75.9   "/>
		<path class="st0" d="M295.4,60.2c0.3-3.6,0.1-7.4-0.9-10.9c-3-10.9-12.4-18.9-27.6-14.7c-7.2,2-12.7,5.9-16.6,10.8    c-0.1,0.1-0.1,0.1-0.2,0.2c-0.1,0.1-0.1,0.1-0.2,0.2c-0.1,0.1-0.1,0.1-0.2,0.2c-0.1,0.1-0.1,0.1-0.2,0.2c-0.1,0.1-0.1,0.1-0.2,0.2    c-0.1,0.1-0.1,0.1-0.2,0.2c-0.1,0.1-0.1,0.1-0.2,0.2c-0.1,0.1-0.1,0.1-0.2,0.2c-0.1,0.1-0.1,0.1-0.2,0.2c-0.1,0.1-0.1,0.1-0.2,0.2    c-0.1,0.1-0.1,0.1-0.2,0.2c-0.1,0.1-0.1,0.1-0.2,0.2c-0.1,0.1-0.1,0.1-0.2,0.2c-0.1,0.1-0.1,0.1-0.2,0.2c-0.1,0.1-0.1,0.1-0.2,0.2    c-0.1,0.1-0.1,0.1-0.2,0.2c-0.1,0.1-0.1,0.1-0.2,0.2c-0.1,0.1-0.1,0.1-0.2,0.2c-0.1,0.1-0.1,0.1-0.2,0.2c-0.1,0.1-0.1,0.1-0.2,0.2    c-6.5,8.1-8.5,18.9-5.9,28.2c3.8,13.6,15.5,19.7,30.6,15.5c7.9-2.2,13.4-6.3,17.3-11.3c0.1-0.1,0.1-0.1,0.2-0.2    c0.1-0.1,0.1-0.1,0.2-0.2c0.1-0.1,0.1-0.1,0.2-0.2c0.1-0.1,0.1-0.1,0.2-0.2c0.1-0.1,0.1-0.1,0.2-0.2c0.1-0.1,0.1-0.1,0.2-0.2    c0.1-0.1,0.1-0.1,0.2-0.2c0.1-0.1,0.1-0.1,0.2-0.2c0.1-0.1,0.1-0.1,0.2-0.2c0.1-0.1,0.1-0.1,0.2-0.2c0.1-0.1,0.1-0.1,0.2-0.2    c0.1-0.1,0.1-0.1,0.2-0.2c0.1-0.1,0.1-0.1,0.2-0.2c0.1-0.1,0.1-0.1,0.2-0.2c0.1-0.1,0.1-0.1,0.2-0.2c0.1-0.1,0.1-0.1,0.2-0.2    c0.1-0.1,0.1-0.1,0.2-0.2c0.1-0.1,0.1-0.1,0.2-0.2c0.1-0.1,0.1-0.1,0.2-0.2c0.1-0.1,0.1-0.1,0.2-0.2c0.6-0.7,1.1-1.5,1.6-2.2    l-11-7.3c-3.1,3.9-6.1,6-9.8,7c-4.7,1.3-8.1,0.2-10.2-2.5l28.8-8L295.4,60.2z M260.1,60.3c0.2-2.1,0.7-4,1.4-5.7    c1.3-1,2.7-1.7,4.2-2.2c4.5-1.2,7.5,0.8,8.6,3.9L260.1,60.3z"/>
		<polygon class="st0" points="217.7,53 218,107.1 236,102.1 239.5,97.5 239.2,43.5 221.2,48.5   "/>
		<path class="st0" d="M179.8,117.7l-18,5l-0.3-54l3.5-4.5l18-5v5.6c0.1-0.1,0.1-0.1,0.2-0.2c0.1-0.1,0.1-0.1,0.2-0.2    c0.1-0.1,0.1-0.1,0.2-0.2c0.1-0.1,0.1-0.1,0.2-0.2c0.1-0.1,0.1-0.1,0.2-0.2c0.1-0.1,0.1-0.1,0.2-0.2c0.1-0.1,0.1-0.1,0.2-0.2    c0.1-0.1,0.1-0.1,0.2-0.2c0.1-0.1,0.1-0.1,0.2-0.2c0.1-0.1,0.1-0.1,0.2-0.2c0.1-0.1,0.1-0.1,0.2-0.2c0.1-0.1,0.1-0.1,0.2-0.2    c0.1-0.1,0.1-0.1,0.2-0.2c2.5-3.3,6-6.3,10.6-7.6c9.3-2.6,16.5,1.6,19.1,10.9c0.8,2.7,1,6,1,9.4l0.2,29.3l-3.5,4.5l-18,5    l-0.2-28.3c0-1.4-0.3-3.1-0.6-4.2c-0.9-3.3-3.5-4.7-7.2-3.7c-1,0.3-1.8,0.6-2.6,1.1c-0.6,1.7-0.9,3.8-0.9,6.1l0.1,28.6    L179.8,117.7z"/>
		<path class="st0" d="M182.6,146.9c-1.7-6.1,1.3-12,6.3-13.4c2.6-0.7,4.5-0.1,6,1.2l-0.1-8.9l6.1-1.7l0.2,24.7l-6.1,1.7l0-1.9    c-1,1.7-2.4,3-4.3,3.6C187.3,153.1,183.9,151.3,182.6,146.9 M195.2,140.3c-0.5-1.8-2.1-2.7-3.8-2.2c-2.3,0.6-3.6,3.4-2.9,6.1    c0.5,1.8,2,2.6,3.8,2.2C194.6,145.7,195.9,142.9,195.2,140.3"/>
		<path class="st0" d="M212.4,141.2c1.2-0.4,2.3-1.1,3.3-2.4l3.7,2.5c-1.3,2-3.3,3.7-6.4,4.5c-5.1,1.4-9.1-0.6-10.4-5.2    c-1.4-5,1.1-11.4,7.5-13.2c5.1-1.4,8.3,1.3,9.3,5c0.3,1.2,0.4,2.5,0.3,3.7l-11.5,3.2C209,141,210.3,141.8,212.4,141.2     M214.1,134.4c0-0.3,0-0.6-0.1-1c-0.3-1.2-1.4-1.9-3-1.5c-1.6,0.5-2.9,1.9-3.1,4.2L214.1,134.4z"/>
		<polygon class="st0" points="228.7,116.3 234.7,114.6 234.9,139.2 228.8,141   "/>
		<path class="st0" d="M236.6,134.2c-1-3.7,1.4-6.9,5.9-8.1c1.6-0.4,3.1-0.6,4.6-0.6l0-0.2c0-0.3,0-0.7-0.1-1.1    c-0.3-1.1-1.4-1.6-3.5-1c-1.6,0.5-3.3,1.3-4.4,2.2l-2.1-4.1c1.6-1.1,4-2.3,6.5-3c5.2-1.5,8.3-0.2,9.2,3.2c0.2,0.8,0.3,1.6,0.3,2.5    l0.1,10.1l-6,1.7l0-2c-1.1,1.8-2.4,3-4.4,3.6C239.8,138.2,237.4,137,236.6,134.2 M247.2,128.9l0-0.6c-0.7,0-1.5,0-2.4,0.3    c-1.9,0.5-2.9,1.8-2.5,3.3c0.3,1,1.1,1.4,2.2,1.1C246,132.5,247.2,130.7,247.2,128.9"/>
		<path class="st0" d="M262.2,121.6c-1.8-6.5,1.7-14.8,10.3-17.2c4.6-1.3,8.3,0,10.6,3l-4.6,4.3c-1.4-1.5-3.1-2.2-5.3-1.6    c-3.7,1-5.7,5.3-4.7,9.1c0.8,2.8,3.1,4,5.7,3.3c1.9-0.5,3.1-1.8,4.2-3.6l5.2,2.5c-1.5,3-4,5.6-8.2,6.8    C269.3,130,263.9,127.5,262.2,121.6"/>
		<path class="st0" d="M284.4,100.6l6.3-1.8l0,4.7l-6.3,1.8L284.4,100.6z M284.5,106.9l6.1-1.7l0.1,18.3l-6.1,1.7L284.5,106.9z"/>
		<path class="st0" d="M293,117.8c-0.3-0.9-0.4-2-0.4-3.2l-0.1-9.9l6.1-1.7l0.1,9.6c0,0.5,0.1,1.1,0.2,1.4c0.3,1.1,1.2,1.6,2.4,1.2    c1.7-0.5,2.4-1.9,2.3-4l0-9.7l6.1-1.7l0.1,18.3l-6.1,1.7l0-2.1c-0.8,1.6-2.2,3.1-4.3,3.7C296.3,122.3,293.9,120.9,293,117.8"/>
		<path class="st0" d="M311.5,110.5c-1.7-6.1,1.3-12,6.3-13.4c2.6-0.7,4.5-0.1,6,1.2l-0.1-8.9l6.1-1.7l0.2,24.7l-6.1,1.7l0-1.9    c-1,1.7-2.4,3-4.3,3.6C316.2,116.7,312.7,114.9,311.5,110.5 M324.1,104c-0.5-1.8-2.1-2.7-3.8-2.2c-2.3,0.6-3.6,3.4-2.9,6.1    c0.5,1.8,2,2.6,3.8,2.2C323.5,109.4,324.8,106.6,324.1,104"/>
		<path class="st0" d="M331.5,107.4c-1-3.7,1.4-6.9,5.9-8.1c1.6-0.4,3.1-0.6,4.6-0.6l0-0.2c0-0.3,0-0.7-0.1-1.1    c-0.3-1.1-1.4-1.6-3.5-1c-1.6,0.5-3.3,1.3-4.4,2.2l-2.1-4.1c1.6-1.1,4-2.3,6.5-3c5.2-1.5,8.3-0.2,9.2,3.2c0.2,0.8,0.3,1.6,0.3,2.5    l0.1,10.1l-6,1.7l0-2c-1.1,1.8-2.4,3-4.4,3.6C334.8,111.5,332.3,110.2,331.5,107.4 M342.1,102.1l0-0.6c-0.7,0-1.5,0-2.4,0.3    c-1.9,0.5-2.9,1.8-2.5,3.3c0.3,1,1.1,1.4,2.2,1.1C341,105.8,342.1,104,342.1,102.1"/>
		<path class="st0" d="M349.6,99.8c-1.7-6.1,1.3-12,6.3-13.4c2.6-0.7,4.5-0.1,6,1.2l-0.1-8.9l6.1-1.7l0.2,24.7l-6.1,1.7l0-1.9    c-1,1.7-2.4,3-4.3,3.6C354.2,106,350.8,104.2,349.6,99.8 M362.1,93.3c-0.5-1.8-2.1-2.7-3.8-2.2c-2.3,0.6-3.6,3.4-2.9,6.1    c0.5,1.8,2,2.6,3.8,2.2C361.5,98.6,362.9,95.8,362.1,93.3"/>
	</g>
	<g>
		<polygon class="st1" points="238.4,96.8 238.1,45 222.3,49.4 222.6,101.2   "/>
		<path class="st1" d="M74.2,131.7l0.4-0.8c4.8-8.8,6.1-19.2,3.5-28.3c-1.8-6.3-5.3-11.6-10.3-15.3c-5-3.7-11.2-5.7-17.9-5.7    c-3.3,0-6.8,0.5-10.2,1.4c-10.4,2.9-19.1,9.6-24.3,18.8c-5,8.9-6.4,19.5-3.7,29.1c1.8,6.3,5.3,11.6,10.3,15.3    c5,3.7,11.2,5.7,17.9,5.7c3.3,0,6.8-0.5,10.2-1.4c5.6-1.6,10.6-4.2,14.9-7.7l0.7-0.6l0.7,0.6l5.2,4.5l9.2-10.4l-6-4.6L74.2,131.7z     M62,120.8l-0.4,1.7l-1.3-1.2l-7.3-6.4l-9.3,10.5l9,6.9l1.2,0.9l-1.3,0.9c-1.7,1.1-3.2,1.9-4.8,2.3c-1.8,0.5-3.6,0.8-5.3,0.8    c-7.1,0-12.5-4.5-14.6-12.1c-1.7-5.9-0.8-12.7,2.2-18.1c2.7-4.8,6.8-8,11.9-9.5c1.8-0.5,3.6-0.8,5.3-0.8c7,0,12.5,4.5,14.6,12.1    C63,112.6,63,116.8,62,120.8"/>
		<path class="st1" d="M116,125l2-3.7l0.1,4.2l0.1,4.8l15.8-4.4l-0.4-51.7l-15.8,4.4l0.1,27.7c0.1,7-2.5,11.3-7.7,12.8    c-0.9,0.3-1.8,0.4-2.6,0.4c-3,0-5.1-1.7-6-4.8c-0.3-1.2-0.5-3-0.5-4.6l-0.1-26.8l-15.8,4.4l0.2,28.5c0,3.7,0.4,6.7,1.1,9.1    c1.9,6.9,6.6,10.8,12.9,10.8c1.5,0,3.2-0.2,4.8-0.7C110.2,133.7,113.9,128.8,116,125"/>
		<polygon class="st1" points="157.9,119.2 157.6,67.4 141.9,71.8 142.2,123.6   "/>
		<path class="st1" d="M192.5,71.5c3,0,5.1,1.7,6,4.8c0.3,1.1,0.6,3,0.6,4.5l0.1,26.8l15.8-4.4l-0.2-28.5c0-4-0.3-6.9-1-9.1    c-2-7-6.5-10.9-12.8-10.9c-1.5,0-3.2,0.2-4.9,0.7c-6.6,1.8-10.4,7.3-12.1,10.4l-2.1,3.8v-4.3l0-4.8L166.2,65l0.3,51.8l15.8-4.4    l-0.1-27.7c0-7.2,2.6-11.3,7.8-12.8C190.8,71.6,191.7,71.5,192.5,71.5"/>
		<path class="st1" d="M143.2,56c-0.1,1.8,0.5,3.3,1.5,4.4c1,1,2.4,1.6,4,1.6c0.7,0,1.3-0.1,2-0.3c4.7-1.2,8.6-5.9,8.8-10.6    c0.1-1.8-0.5-3.3-1.5-4.4c-1-1-2.4-1.6-4-1.6c-0.7,0-1.3,0.1-2,0.3C147.3,46.7,143.3,51.4,143.2,56"/>
		<path class="st1" d="M274.7,34.6L274.7,34.6c-2.4,0-4.9,0.4-7.5,1.1c-10.3,2.9-15.8,9.4-18.6,14.3c-4,7.1-5.1,15.5-2.9,23.2    c2.8,10.2,10.3,16,20.5,16c2.8,0,5.7-0.4,8.7-1.3c7.4-2.1,13.3-6.1,17.6-12l-9.3-6.2c-3,3.5-6,5.6-9.7,6.6c-1.4,0.4-2.7,0.6-4,0.6    c-4.3,0-7.6-2.4-9.2-6.9L260,69l1.1-0.3l33.2-9.2c0.2-3.4-0.1-6.8-0.9-9.7C290.8,40.2,283.8,34.6,274.7,34.6 M279.5,55.3l0,0.8    l-0.8,0.2l-18.3,5.1l-1.5,0.4l0.1-1.6c0.5-6.6,4.3-11.8,10-13.3c1-0.3,1.9-0.4,2.8-0.4c3.5,0,6.3,2.2,7.3,5.6    C279.4,53.1,279.5,54.2,279.5,55.3"/>
		<path class="st1" d="M352.3,59.6l2-3.2l0.1,3.7l0.1,4.4l15.5-4.3l-0.2-28.9c0-2.7-0.3-5.1-0.9-7.2c-2-7-7-10.5-15.1-10.5    c-3.2,0-6.8,0.6-10.8,1.7c-6.6,1.8-13.3,4.8-18.2,8l5.1,10.1c3.5-2.4,8.3-4.6,12.4-5.8c1.9-0.5,3.6-0.8,5-0.8    c2.5,0,5.6,0.8,6.6,4.5c0.3,1.2,0.4,2.2,0.4,3.1c0,0.1,0,0.2,0,0.4l0,0v0l0,0.7l0,1.1l-1.1,0c-0.3,0-0.6,0-0.9,0    c-4.3,0-8.3,0.5-12.3,1.6c-7.3,2-12.8,5.8-15.5,10.6c-2.1,3.6-2.5,7.7-1.3,12.1c1.7,6,6.2,9.6,12.2,9.6c1.5,0,3-0.2,4.6-0.7    C345.1,68.2,348.8,65.2,352.3,59.6 M343.7,58.8c-2.8,0-4.9-1.6-5.6-4.3c-0.7-2.6-0.3-5,1.2-7c1.4-1.9,3.8-3.4,6.9-4.2    c2-0.5,4-0.8,6.2-0.8c0.4,0,0.8,0,1.2,0l1.1,0l0,1.1l0,1.8c0,6.1-3.8,11.7-8.8,13.1C345.1,58.7,344.4,58.8,343.7,58.8"/>
		<path class="st1" d="M240,29.2c0.1-1.8-0.5-3.3-1.5-4.4c-1-1-2.4-1.6-4-1.6c-0.7,0-1.3,0.1-2,0.3c-4.7,1.2-8.6,5.9-8.8,10.6    c-0.1,1.8,0.5,3.3,1.5,4.4c1,1,2.4,1.6,4,1.6c0.7,0,1.3-0.1,2-0.3C235.9,38.5,239.9,33.8,240,29.2"/>
		<polygon class="st1" points="316.2,75.1 315.8,4.5 300,8.9 300.4,79.5   "/>
	</g>
	<g>
		<path class="st0" d="M239.2,43.6l-18,5l0.3,54l18-5L239.2,43.6z M238.1,45l0.3,51.8l-15.8,4.4l-0.3-51.8L238.1,45z"/>
		<path class="st0" d="M79.2,102.3C75.4,89,64.1,80.5,49.9,80.5c-3.4,0-6.9,0.5-10.5,1.5c-23,6.4-34.3,29.5-28.8,49.2    c3.7,13.3,15.1,21.8,29.2,21.8c3.4,0,6.9-0.5,10.5-1.5c5.9-1.6,11-4.4,15.3-8l6,5.2l10.7-12.1l-6.9-5.3    C80.4,122.5,81.9,112,79.2,102.3 M80.9,136.9l-9.2,10.4l-5.2-4.5l-0.7-0.6l-0.7,0.6c-4.3,3.6-9.3,6.2-14.9,7.7    c-3.4,1-6.9,1.4-10.2,1.4c-6.7,0-12.9-2-17.9-5.7c-5-3.7-8.5-9-10.3-15.3c-2.7-9.5-1.3-20.1,3.7-29.1c5.2-9.2,13.8-15.9,24.3-18.8    c3.4-1,6.9-1.4,10.2-1.4c6.7,0,12.9,2,17.9,5.7c5,3.7,8.5,9,10.3,15.3c2.6,9.1,1.3,19.5-3.5,28.3l-0.4,0.8l0.7,0.6L80.9,136.9z"/>
		<path class="st0" d="M47.3,96.8c-1.7,0-3.5,0.3-5.3,0.8c-5.1,1.4-9.2,4.7-11.9,9.5c-3.1,5.4-3.9,12.2-2.2,18.1    c2.1,7.6,7.6,12.1,14.6,12.1c1.7,0,3.5-0.3,5.3-0.8c1.6-0.4,3.2-1.2,4.8-2.3l1.3-0.9l-1.2-0.9l-9-6.9l9.3-10.5l7.3,6.4l1.3,1.2    l0.4-1.7c1-4,1-8.2,0-12C59.8,101.3,54.4,96.8,47.3,96.8 M60.9,120.5l-8.1-7.1L42,125.6l10,7.6c-1.3,0.9-2.8,1.7-4.5,2.2    c-1.7,0.5-3.4,0.7-5,0.7c-6.8,0-11.7-4.4-13.6-11.3c-2.8-9.8,1.7-23,13.4-26.2c1.7-0.5,3.4-0.7,5-0.7c6.8,0,11.7,4.4,13.6,11.3    C61.9,112.6,61.9,116.7,60.9,120.5"/>
		<path class="st0" d="M116.6,77.7l0.1,28.6c0.1,6.2-1.9,10.3-6.9,11.7c-0.8,0.2-1.6,0.3-2.3,0.3c-2.5,0-4.2-1.4-4.9-4    c-0.3-1.1-0.5-2.9-0.5-4.3L102,81.8l-18,5l0.2,29.4c0,3.4,0.3,6.7,1.1,9.4c2.1,7.4,7.2,11.6,13.9,11.6c1.6,0,3.3-0.2,5.1-0.7    c6.1-1.7,10.2-6.3,12.6-10.9l0.1,6.2l18-5l-0.4-54L116.6,77.7z M99.2,136.1c-6.3,0-11-4-12.9-10.8c-0.7-2.4-1-5.5-1.1-9.1    l-0.2-28.5l15.8-4.4L101,110c0,1.6,0.2,3.4,0.5,4.6c0.9,3.1,3,4.8,6,4.8c0.8,0,1.7-0.1,2.6-0.4c5.2-1.5,7.8-5.8,7.7-12.8    l-0.1-27.7l15.8-4.4l0.4,51.7l-15.8,4.4l-0.1-4.8l-0.1-4.2l-2,3.7c-2.1,3.8-5.8,8.7-12,10.4C102.3,135.9,100.7,136.1,99.2,136.1"/>
		<path class="st0" d="M140.8,71l0.3,54l18-5l-0.3-54L140.8,71z M157.6,67.4l0.3,51.8l-15.8,4.4l-0.3-51.8L157.6,67.4z"/>
		<path class="st0" d="M215.8,74.8c0-3.4-0.3-6.7-1-9.4c-2.1-7.5-7.2-11.6-13.9-11.6c-1.6,0-3.4,0.2-5.2,0.7    c-6.1,1.7-10.3,6.4-12.7,11l0-6.2l-18,5l0.3,54l18-5l-0.1-28.6c0-6.2,2-10.4,7-11.8c0.8-0.2,1.5-0.3,2.2-0.3c2.5,0,4.2,1.4,4.9,4    c0.3,1.1,0.6,2.8,0.6,4.2l0.2,28.3l18-5L215.8,74.8z M182.1,84.7l0.1,27.7l-15.8,4.4L166.2,65l15.8-4.4l0,4.8v4.3l2.1-3.8    c1.7-3.1,5.5-8.6,12.1-10.4c1.7-0.5,3.3-0.7,4.9-0.7c6.3,0,10.9,3.9,12.8,10.8c0.6,2.2,0.9,5.1,1,9.1l0.2,28.5l-15.8,4.4L199,80.9    c0-1.6-0.3-3.4-0.6-4.5c-0.9-3.1-3-4.8-6-4.8c-0.8,0-1.6,0.1-2.5,0.4C184.7,73.3,182.1,77.5,182.1,84.7"/>
		<path class="st0" d="M154,44.1c-0.7,0-1.5,0.1-2.3,0.3c-5.1,1.3-9.4,6.5-9.6,11.6c-0.2,4.3,2.7,7.1,6.7,7.1c0.7,0,1.5-0.1,2.3-0.3    c5.1-1.3,9.4-6.5,9.6-11.6C160.8,47,158,44.1,154,44.1 M154,45.2c1.6,0,3,0.5,4,1.6c1.1,1.1,1.6,2.6,1.5,4.4    c-0.2,4.6-4.1,9.4-8.8,10.6c-0.7,0.2-1.4,0.3-2,0.3c-1.6,0-3-0.5-4.1-1.6c-1-1.1-1.6-2.6-1.5-4.4c0.2-4.6,4.1-9.4,8.8-10.6    C152.6,45.3,153.3,45.2,154,45.2"/>
		<path class="st0" d="M274.7,33.5c-2.4,0-5,0.4-7.8,1.1c-18.9,5.3-26.4,24-22.3,38.8c3,10.7,10.9,16.8,21.6,16.8    c2.8,0,5.9-0.4,9-1.3c8.9-2.5,14.8-7.4,18.8-13.3l-11-7.3c-3.1,3.9-6.1,6-9.8,7c-1.3,0.4-2.6,0.5-3.7,0.5c-4.1,0-6.8-2.3-8.2-6.1    l34-9.5c0.3-3.6,0.1-7.4-0.9-10.9C292,40.5,285.3,33.5,274.7,33.5 M294.3,59.4l-33.2,9.2L260,69l0.4,1.1c1.6,4.4,4.9,6.9,9.2,6.9    c1.2,0,2.6-0.2,4-0.6c3.7-1,6.7-3.1,9.7-6.6l9.3,6.2c-4.2,5.9-10.1,9.9-17.6,12c-3,0.8-6,1.3-8.7,1.3c-10.2,0-17.7-5.8-20.5-16    c-2.1-7.6-1.1-16.1,2.9-23.2c2.8-4.9,8.3-11.4,18.6-14.3c2.6-0.7,5.1-1.1,7.5-1.1c9.1,0,16.1,5.6,18.7,15.1    C294.2,52.6,294.5,56,294.3,59.4"/>
		<path class="st0" d="M271.9,46.5c-0.9,0-1.9,0.1-2.8,0.4c-5.7,1.6-9.5,6.7-10,13.3l-0.1,1.6l1.5-0.4l18.3-5.1l0.8-0.2l0-0.8    c0.1-1.1,0-2.2-0.3-3.2C278.2,48.7,275.4,46.5,271.9,46.5 M278.1,52.4c0.3,0.9,0.3,1.9,0.3,2.8l-18.3,5.1c0.5-6.6,4.4-11,9.2-12.4    c0.9-0.3,1.8-0.4,2.6-0.4C275.1,47.6,277.3,49.7,278.1,52.4"/>
		<path class="st0" d="M370.8,31.2c0-2.7-0.3-5.2-1-7.5c-2-7.3-7.4-11.3-16.2-11.3c-3.2,0-6.9,0.6-11.1,1.7    c-7.4,2.1-14.4,5.3-19.3,8.7l6.1,12.1c3.2-2.4,8.3-5,13.1-6.3c1.8-0.5,3.4-0.7,4.7-0.7c3.2,0,4.9,1.4,5.6,3.7    c0.3,1.2,0.3,2.3,0.4,3.2l0,0.7c-0.3,0-0.6,0-0.9,0c-4.1,0-8.3,0.5-12.6,1.7c-13.5,3.8-20.6,13-17.6,24    c1.9,6.7,6.9,10.4,13.2,10.4c1.6,0,3.2-0.2,4.9-0.7c6-1.7,9.7-5.3,13-10.5l0.1,5.8L371,61L370.8,31.2z M335.4,70.2    c-5.9,0-10.5-3.6-12.2-9.6c-1.2-4.4-0.8-8.4,1.3-12.1c2.7-4.8,8.2-8.5,15.5-10.6c3.9-1.1,7.9-1.6,12.3-1.6c0.3,0,0.6,0,0.9,0    l1.1,0l0-1.1l0-0.7v0l0,0c0-0.1,0-0.2,0-0.4c0-0.8-0.1-1.9-0.4-3.1c-1-3.7-4.2-4.5-6.6-4.5c-1.4,0-3.1,0.3-5,0.8    c-4.1,1.2-8.9,3.4-12.4,5.8l-5.1-10.1c4.9-3.2,11.6-6.2,18.2-8c4-1.1,7.6-1.7,10.8-1.7c8.1,0,13.1,3.5,15.1,10.5    c0.6,2.1,0.9,4.5,0.9,7.2l0.2,28.9l-15.5,4.3l-0.1-4.4l-0.1-3.7l-2,3.2c-3.5,5.6-7.2,8.6-12.3,10C338.4,70,336.9,70.2,335.4,70.2"/>
		<path class="st0" d="M354.6,45.5l0-1.8l0-1.1l-1.1,0c-0.4,0-0.8,0-1.2,0c-2.2,0-4.2,0.3-6.2,0.8c-3,0.8-5.4,2.3-6.9,4.2    c-1.5,2-2,4.4-1.2,7c0.7,2.7,2.8,4.3,5.6,4.3c0.7,0,1.4-0.1,2.1-0.3C350.8,57.1,354.6,51.5,354.6,45.5 M343.7,57.7    c-2.2,0-3.9-1.2-4.6-3.5c-1.3-4.5,1.7-8.3,7.3-9.8c2-0.6,4-0.8,5.9-0.8c0.4,0,0.8,0,1.1,0l0,1.8c0,5.5-3.3,10.7-8,12    C344.9,57.6,344.3,57.7,343.7,57.7"/>
		<path class="st0" d="M234.5,22.1c-0.7,0-1.5,0.1-2.3,0.3c-5.1,1.3-9.4,6.5-9.6,11.6c-0.1,4.3,2.7,7.1,6.7,7.1    c0.7,0,1.5-0.1,2.3-0.3c5.1-1.3,9.4-6.5,9.6-11.6C241.3,24.9,238.4,22.1,234.5,22.1 M225.2,38.4c-1.1-1.1-1.6-2.6-1.5-4.4    c0.2-4.6,4.1-9.4,8.8-10.6c0.7-0.2,1.4-0.3,2-0.3c1.6,0,3,0.5,4,1.6c1.1,1.1,1.6,2.6,1.5,4.4c-0.2,4.6-4.1,9.4-8.8,10.6    c-0.7,0.2-1.4,0.3-2,0.3C227.6,40,226.2,39.4,225.2,38.4"/>
		<path class="st0" d="M298.9,8l0.4,72.9l18-5L316.9,3L298.9,8z M315.8,4.5l0.4,70.6l-15.8,4.4L300,8.9L315.8,4.5z"/>
	</g>
</g>
</svg>