<svg xmlns="http://www.w3.org/2000/svg" xmlns:xlink="http://www.w3.org/1999/xlink" id="aad5c394-a1d4-427c-beb7-6b0fd746c88f" data-name="a9797365-aa43-4666-9ffc-757f43eab7f2" viewBox="0 0 56.14 21.73"><defs><style>.a58eda0f-a345-430f-9b15-f8db263148ac{fill:#1d1d1b;}.adbcac2d-c950-46e6-ad8a-8854d66e49f2{fill:#f4bf00;stroke:#f4bf00;}.b277ffc5-d63a-488f-aa23-3ae2328c109d{fill:#e20613;}.b3ea4307-8e88-42c1-bd3d-85273a5633b3,.f1f763d0-31d2-4160-b2b0-f9bf9f55f1db{fill:#fff;}.b3ea4307-8e88-42c1-bd3d-85273a5633b3,.b7b6de61-3aa5-4158-b940-ca509fd2ba02{fill-rule:evenodd;}.e977d5df-1926-4a72-9cf6-b1bd003f4e43{fill:none;stroke:#1d1d1b;stroke-width:0.6px;}.a5a9f2d9-56ec-4cc3-851a-1978dce6c181{fill:#2b5365;stroke:#e20613;}.a82dc56e-b387-477d-97e4-667fcfc9d27b{fill:url(#a1ccaa82-ad71-4181-b4dc-ba0de5256e92);}.a9bad39d-7254-42ff-8a91-f203a2d787d9{fill:url(#ee102f19-606a-426c-b68f-7ae5bdb36b71);}.b305a86b-5b18-47e1-9898-cf14dd15c949{fill:url(#ba9a7e72-5364-4465-869a-9dc57117072c);}.f1f763d0-31d2-4160-b2b0-f9bf9f55f1db{stroke:#fff;stroke-linecap:round;stroke-linejoin:round;stroke-width:2px;}</style><linearGradient id="a1ccaa82-ad71-4181-b4dc-ba0de5256e92" x1="31.25" y1="27.67" x2="31.25" y2="36.69" gradientTransform="matrix(1, 0.01, 0.01, -1, -1.79, 47.05)" gradientUnits="userSpaceOnUse"><stop offset="0" stop-color="#d88b00"/><stop offset="0.21" stop-color="#e3a400"/><stop offset="0.54" stop-color="#f2c400"/><stop offset="0.81" stop-color="#fcd900"/><stop offset="1" stop-color="#ffe000"/></linearGradient><linearGradient id="ee102f19-606a-426c-b68f-7ae5bdb36b71" x1="37.4" y1="31.48" x2="37.4" y2="36.69" xlink:href="#a1ccaa82-ad71-4181-b4dc-ba0de5256e92"/><linearGradient id="ba9a7e72-5364-4465-869a-9dc57117072c" x1="41.99" y1="31.47" x2="41.99" y2="39.73" xlink:href="#a1ccaa82-ad71-4181-b4dc-ba0de5256e92"/></defs><title>Logo Progol media semana_OK</title><path class="a58eda0f-a345-430f-9b15-f8db263148ac" d="M9.21,12.56s-2.67,8.13,4,10c0,0,10.33,3.84,29.81-12.74,0,0-18,11.27-23,11.44,0,0,13.18-5.16,18.19-11.57,3.42-4.37-3.06,1.78-2.44,1,0,0-12.8,8.52-18.71,9.84,0,0,14.76-6.32,19.08-12.48,0,0-20.25,14.29-24,8.25,0,0-1.76-1.78-.21-5A3.24,3.24,0,0,0,9.21,12.56Z" transform="translate(-1.4 -1.63)"/><path class="adbcac2d-c950-46e6-ad8a-8854d66e49f2" d="M1.9,11.79v-2l4.1,0v.42A4.66,4.66,0,0,1,8.16,9.7a3.55,3.55,0,0,1,2.44.94,3.14,3.14,0,0,1,1,2.43,3,3,0,0,1-1,2.39,3.85,3.85,0,0,1-2.6.87,3.8,3.8,0,0,1-2-.54v1.33h.84v2H1.9v-2h.79V11.81ZM6,13a1.51,1.51,0,0,0,.31,1,1,1,0,0,0,.79.36c.75,0,1.12-.47,1.13-1.43s-.35-1.4-1.07-1.41a1.06,1.06,0,0,0-.82.34A1.56,1.56,0,0,0,6,13Z" transform="translate(-1.4 -1.63)"/><path class="adbcac2d-c950-46e6-ad8a-8854d66e49f2" d="M17.78,16.27H12.63v-2h.87V11.86h-.87v-2h4v1.6a2.59,2.59,0,0,1,.7-1,2.09,2.09,0,0,1,.91-.55,5.67,5.67,0,0,1,1.3-.12V12.6h-.28a4,4,0,0,0-1.5.19,1.38,1.38,0,0,0-.71.55,2,2,0,0,0-.2.93h1Z" transform="translate(-1.4 -1.63)"/><path class="adbcac2d-c950-46e6-ad8a-8854d66e49f2" d="M20.1,13.05a3,3,0,0,1,1.2-2.37,4.92,4.92,0,0,1,3.21-.94,5.35,5.35,0,0,1,3.29.95,2.91,2.91,0,0,1,1.26,2.45,3,3,0,0,1-1.23,2.4,4.93,4.93,0,0,1-3.21.95,5.12,5.12,0,0,1-3.34-1A3,3,0,0,1,20.1,13.05Zm3.35,0c0,1,.36,1.53,1.09,1.53s1.16-.5,1.17-1.53a1.85,1.85,0,0,0-.28-1.1.93.93,0,0,0-.81-.39,1,1,0,0,0-.84.38,1.69,1.69,0,0,0-.33,1.15Z" transform="translate(-1.4 -1.63)"/><path class="b277ffc5-d63a-488f-aa23-3ae2328c109d" d="M2,11.79v-2H6.09v.42A4.72,4.72,0,0,1,8.27,9.7a3.55,3.55,0,0,1,2.44.94,3.13,3.13,0,0,1,1,2.44,3,3,0,0,1-1,2.38,3.85,3.85,0,0,1-2.6.87,3.83,3.83,0,0,1-2-.54v1.33H6.9v2L2,19.1v-2h.78V11.8ZM6.07,13a1.49,1.49,0,0,0,.31,1,1,1,0,0,0,.78.36c.75,0,1.13-.47,1.13-1.43s-.35-1.4-1.07-1.41a1.06,1.06,0,0,0-.82.34A1.56,1.56,0,0,0,6.07,13Z" transform="translate(-1.4 -1.63)"/><path class="b277ffc5-d63a-488f-aa23-3ae2328c109d" d="M17.89,16.27H12.74v-2h.87V11.9h-.87v-2h4v1.6a2.92,2.92,0,0,1,.7-1,2.3,2.3,0,0,1,.91-.55,5.67,5.67,0,0,1,1.3-.12v2.81h-.27a4.08,4.08,0,0,0-1.51.19,1.32,1.32,0,0,0-.7.55,2.14,2.14,0,0,0-.21.93h1Z" transform="translate(-1.4 -1.63)"/><path class="b277ffc5-d63a-488f-aa23-3ae2328c109d" d="M20.21,13.06a3,3,0,0,1,1.2-2.38,4.92,4.92,0,0,1,3.21-.94,5.4,5.4,0,0,1,3.3.95,2.91,2.91,0,0,1,1.25,2.45,3,3,0,0,1-1.23,2.41,5,5,0,0,1-3.2.94,5.12,5.12,0,0,1-3.34-1A3,3,0,0,1,20.21,13.06Zm3.36,0q0,1.53,1.08,1.53t1.17-1.53a1.85,1.85,0,0,0-.28-1.1.93.93,0,0,0-.81-.39,1,1,0,0,0-.84.38,1.71,1.71,0,0,0-.32,1.14Z" transform="translate(-1.4 -1.63)"/><path class="b3ea4307-8e88-42c1-bd3d-85273a5633b3" d="M40.12,2.06a3.63,3.63,0,0,1,3.54,3.73,3.67,3.67,0,0,1-7.33-.25A3.64,3.64,0,0,1,40.12,2.06Z" transform="translate(-1.4 -1.63)"/><path class="b3ea4307-8e88-42c1-bd3d-85273a5633b3" d="M42.41,5.8a9.23,9.23,0,0,0-1.29.12,6.45,6.45,0,0,0-1-1.15c.07-.47.24-.83.33-1.28a1.54,1.54,0,0,1,2,2.31Z" transform="translate(-1.4 -1.63)"/><path class="b3ea4307-8e88-42c1-bd3d-85273a5633b3" d="M38.68,8.58a3.3,3.3,0,0,1,.42-.94,4.91,4.91,0,0,0,1.47-.23c.36.19.65.44,1,.65C41.44,9.36,39.36,9.34,38.68,8.58Z" transform="translate(-1.4 -1.63)"/><path class="b3ea4307-8e88-42c1-bd3d-85273a5633b3" d="M37.46,8.09a21.94,21.94,0,0,1,2,1A2.44,2.44,0,0,1,37.46,8.09Z" transform="translate(-1.4 -1.63)"/><path class="b3ea4307-8e88-42c1-bd3d-85273a5633b3" d="M36.49,5.48c.14.44.2,1,.57,1.2a3.61,3.61,0,0,0,.34,1.41A3.13,3.13,0,0,1,36.49,5.48Z" transform="translate(-1.4 -1.63)"/><path class="b7b6de61-3aa5-4158-b940-ca509fd2ba02" d="M39.26,2.89a1.62,1.62,0,0,1,0-.62,1,1,0,0,0-.62.15,1.53,1.53,0,0,1,1.07-.3.51.51,0,0,0-.36.71c.36.21.84.3,1.1.6a7.44,7.44,0,0,1,1.41-.17,1.94,1.94,0,0,0,0-.68,3.38,3.38,0,0,1,1.61,2c-.15-.17-.45,0-.56-.08a4.3,4.3,0,0,0-.14,2.58c.17,0,.56.13.56-.1.16.09-.11.19-.07.34,0-.18-.2-.21-.44-.19A4,4,0,0,0,41.3,8.87c.7,0,1.19-.69,1.67-1.12-2,2.94-6.81,1.18-6.53-2.4a3.6,3.6,0,0,1,2.12-3c-.53.45-1.31.61-1.4,1.52.24.11.57-.2,1-.13A3.26,3.26,0,0,1,39.26,2.89Zm1.22.6c-.09.45-.26.81-.33,1.28a6.45,6.45,0,0,1,1,1.15c.42-.06.86-.09,1.29-.12a1.54,1.54,0,0,0-2-2.31Zm.59,2.43a10,10,0,0,0-1-1.16c-.46.13-1,.19-1.47.29a5.74,5.74,0,0,1-.46-1.19c-1.57-.21-1.82,2-1,2.82a4.31,4.31,0,0,0,1-.25,3.57,3.57,0,0,1,.49-1.38c-.07.47-.51.93-.44,1.44a2,2,0,0,0,1,1.1c.47.12.92-.2,1.47-.23A4.25,4.25,0,0,0,41.07,5.92ZM37.4,8.09a3.61,3.61,0,0,1-.34-1.41c-.37-.24-.43-.76-.57-1.2A3.13,3.13,0,0,0,37.4,8.09Zm4.15,0a10.78,10.78,0,0,0-1-.65,4.91,4.91,0,0,1-1.47.23,3.3,3.3,0,0,0-.42.94c.7.73,2.78.75,2.89-.55Zm-2,1a21.94,21.94,0,0,0-2-1,2.43,2.43,0,0,0,2,1Z" transform="translate(-1.4 -1.63)"/><path class="b3ea4307-8e88-42c1-bd3d-85273a5633b3" d="M40.57,7.36c-.55,0-1,.35-1.47.23a2,2,0,0,1-1-1.1c-.07-.51.37-1,.44-1.44a3.57,3.57,0,0,0-.49,1.38,4.31,4.31,0,0,1-1,.25c-.77-.83-.52-3,1-2.82a5.74,5.74,0,0,0,.46,1.19c.49-.1,1-.16,1.47-.29a10,10,0,0,1,1,1.16A4.25,4.25,0,0,1,40.57,7.36Z" transform="translate(-1.4 -1.63)"/><path class="e977d5df-1926-4a72-9cf6-b1bd003f4e43" d="M36.31,5.63A3.68,3.68,0,1,1,40,9.29h0a3.67,3.67,0,0,1-3.69-3.65Z" transform="translate(-1.4 -1.63)"/><path class="a5a9f2d9-56ec-4cc3-851a-1978dce6c181" d="M33.46,10.8l-.53.56h-.11a.41.41,0,0,0-.28.09,1.5,1.5,0,0,1,.13.62,3.93,3.93,0,0,1-1.3,2.7,3,3,0,0,1-2.3,1,1.82,1.82,0,0,1-1.37-.48.63.63,0,0,0-.41.6c0,.36.34.52,1,.51h.46a2,2,0,0,1,1.25.4,1.49,1.49,0,0,1,.52,1.2A1.39,1.39,0,0,1,30,19.26a2.61,2.61,0,0,1-1.4.3A3.73,3.73,0,0,1,26.79,19c-.71-.39-1.07-.85-1.09-1.37l.76-.11c.05.33.32.6.81.8a2.82,2.82,0,0,0,1.18.26c.42,0,.63-.12.63-.38s-.15-.42-.46-.47h-.76c-1.1,0-1.65-.48-1.65-1.4a1.43,1.43,0,0,1,.38-.92,2,2,0,0,1,.81-.61,1.42,1.42,0,0,1-.1-.58,3.61,3.61,0,0,1,1.13-2.54,3.43,3.43,0,0,1,2.51-1.13,2,2,0,0,1,1,.22,1.31,1.31,0,0,1,.82-.21A1.12,1.12,0,0,1,33.46,10.8ZM31.26,12c0-.36-.17-.54-.52-.54s-.79.37-1.26,1.12a3.38,3.38,0,0,0-.66,1.64c0,.31.16.46.48.46a2,2,0,0,0,1.31-1A3.23,3.23,0,0,0,31.26,12Z" transform="translate(-1.4 -1.63)"/><path class="a5a9f2d9-56ec-4cc3-851a-1978dce6c181" d="M38.83,10.83l-.53.57h-.11a.54.54,0,0,0-.28.08,1.51,1.51,0,0,1,.13.63,3.62,3.62,0,0,1-1.1,2.55,3.36,3.36,0,0,1-2.5,1.14c-1.18,0-1.77-.52-1.76-1.52a3.6,3.6,0,0,1,1.12-2.54,3.43,3.43,0,0,1,2.51-1.13,2,2,0,0,1,1,.22,1.48,1.48,0,0,1,.82-.21A1,1,0,0,1,38.83,10.83Zm-2.2,1.22a.47.47,0,0,0-.38-.55h-.14c-.37,0-.79.37-1.26,1.12a3.41,3.41,0,0,0-.66,1.65.42.42,0,0,0,.37.46h.1c.42,0,.86-.35,1.32-1A3.23,3.23,0,0,0,36.63,12.05Z" transform="translate(-1.4 -1.63)"/><path class="a5a9f2d9-56ec-4cc3-851a-1978dce6c181" d="M42.68,7.6l-2.81,6.07a1.48,1.48,0,0,0-.16.58c0,.2.11.3.34.31l.26-.07h.18a1.17,1.17,0,0,1-.56,1.06,1.31,1.31,0,0,1-.77.25A1,1,0,0,1,38,15a1,1,0,0,1,0-.34,5.15,5.15,0,0,1,.57-1.71L41.05,7.6Z" transform="translate(-1.4 -1.63)"/><path class="a82dc56e-b387-477d-97e4-667fcfc9d27b" d="M33.54,10.8l-.53.56H32.9a.41.41,0,0,0-.28.09,1.5,1.5,0,0,1,.13.62,3.89,3.89,0,0,1-1.3,2.7,3,3,0,0,1-2.3,1,1.8,1.8,0,0,1-1.36-.48.64.64,0,0,0-.42.6c0,.36.34.52,1,.51h.46a1.89,1.89,0,0,1,1.27.42A1.54,1.54,0,0,1,30.6,18a1.42,1.42,0,0,1-.6,1.23,2.61,2.61,0,0,1-1.4.3A3.54,3.54,0,0,1,26.87,19c-.71-.39-1.07-.85-1.09-1.36l.76-.12q.08.5.81.81a3,3,0,0,0,1.18.25c.42,0,.63-.12.64-.38s-.16-.42-.47-.47h-.76c-1.1,0-1.65-.48-1.65-1.4a1.43,1.43,0,0,1,.38-.92,2,2,0,0,1,.81-.61,1.42,1.42,0,0,1-.1-.58,3.61,3.61,0,0,1,1.13-2.54A3.42,3.42,0,0,1,31,10.57a2,2,0,0,1,1,.22,1.4,1.4,0,0,1,.82-.21A1,1,0,0,1,33.54,10.8ZM31.34,12c0-.37-.17-.55-.52-.55s-.79.37-1.26,1.12a3.41,3.41,0,0,0-.66,1.65c0,.3.16.45.48.46s.85-.35,1.31-1A3.23,3.23,0,0,0,31.34,12Z" transform="translate(-1.4 -1.63)"/><path class="a9bad39d-7254-42ff-8a91-f203a2d787d9" d="M38.91,10.83l-.53.57h-.11a.54.54,0,0,0-.28.08,1.37,1.37,0,0,1,.13.63A3.6,3.6,0,0,1,37,14.65a3.36,3.36,0,0,1-2.49,1.14c-1.19,0-1.78-.52-1.77-1.52a3.6,3.6,0,0,1,1.12-2.54,3.43,3.43,0,0,1,2.51-1.13,2,2,0,0,1,1,.22,1.48,1.48,0,0,1,.82-.21A1.1,1.1,0,0,1,38.91,10.83Zm-2.19,1.22a.48.48,0,0,0-.4-.55h-.13c-.37,0-.79.37-1.26,1.12a3.41,3.41,0,0,0-.66,1.65.42.42,0,0,0,.37.46h.11c.41,0,.85-.35,1.31-1A3.16,3.16,0,0,0,36.72,12.05Z" transform="translate(-1.4 -1.63)"/><path class="b305a86b-5b18-47e1-9898-cf14dd15c949" d="M42.77,7.6,40,13.67a1.48,1.48,0,0,0-.16.58c0,.2.12.31.35.31l.25-.07h.18a1.08,1.08,0,0,1-.11.56,1.21,1.21,0,0,1-.45.5,1.31,1.31,0,0,1-.77.25A1,1,0,0,1,38.1,15a.94.94,0,0,1,0-.41,5.15,5.15,0,0,1,.57-1.71L41.13,7.6Z" transform="translate(-1.4 -1.63)"/><path class="f1f763d0-31d2-4160-b2b0-f9bf9f55f1db" d="M34.53,22.1h-.8l.33-2.2-.33.23-.29.15-.38-.46a15.94,15.94,0,0,0,1.65-1.06L35,19Z" transform="translate(-1.4 -1.63)"/><path class="f1f763d0-31d2-4160-b2b0-f9bf9f55f1db" d="M37.27,18.61l-2,3.75-.53-.1,2-3.76Z" transform="translate(-1.4 -1.63)"/><path class="f1f763d0-31d2-4160-b2b0-f9bf9f55f1db" d="M39.17,22.1H36.91v-.42a8.72,8.72,0,0,0,1-.82c.47-.45.6-.65.6-.92a.4.4,0,0,0-.4-.4h0a1.07,1.07,0,0,0-.62.23l-.11-.65a1.71,1.71,0,0,1,1-.33,1,1,0,0,1,1.06.94v.06a1.48,1.48,0,0,1-.51,1c-.13.14-.3.29-.47.45l-.25.2h1.28Z" transform="translate(-1.4 -1.63)"/><path class="f1f763d0-31d2-4160-b2b0-f9bf9f55f1db" d="M42.57,19.68a1.24,1.24,0,0,0-.66-.27.35.35,0,0,0-.38.28c0,.15.06.24.41.49a2.11,2.11,0,0,1,.47.42.89.89,0,0,1,.19.52,1,1,0,0,1-.5.88,1.39,1.39,0,0,1-.8.18,2.28,2.28,0,0,1-.89-.21,1.28,1.28,0,0,1-.25-.15l.21-.77a1.24,1.24,0,0,0,.82.4.34.34,0,0,0,.38-.3v0c0-.12-.06-.21-.22-.33-.31-.25-.43-.34-.54-.45a.82.82,0,0,1-.26-.66,1,1,0,0,1,.44-.8,1.42,1.42,0,0,1,.72-.2,1.84,1.84,0,0,1,1,.25Z" transform="translate(-1.4 -1.63)"/><path class="f1f763d0-31d2-4160-b2b0-f9bf9f55f1db" d="M44.81,21.74a1.51,1.51,0,0,1-1.1.44.93.93,0,0,1-.74-.36,1,1,0,0,1-.2-.7,1.67,1.67,0,0,1,.4-1,1.28,1.28,0,0,1,.93-.43c.53,0,.83.24.83.65s-.46.8-1.34,1a.37.37,0,0,0,.35.33,1.08,1.08,0,0,0,.73-.35ZM44.3,20.4a.18.18,0,0,0-.15-.21h0c-.25,0-.47.3-.53.73C44,20.82,44.29,20.62,44.3,20.4Z" transform="translate(-1.4 -1.63)"/><path class="f1f763d0-31d2-4160-b2b0-f9bf9f55f1db" d="M45.79,19.69a.52.52,0,0,1,.16.37.61.61,0,0,1,0,.19.94.94,0,0,1,.8-.56.53.53,0,0,1,.46.18.46.46,0,0,1,.09.36,1.07,1.07,0,0,1,.32-.35.89.89,0,0,1,.52-.19.54.54,0,0,1,.61.45.13.13,0,0,1,0,.06,1.22,1.22,0,0,1,0,.27l-.24,1.63h-.78l.2-1.35v-.16c0-.14,0-.2-.18-.2s-.27.11-.46.42l-.2,1.29h-.78l.21-1.35v-.16c0-.05-.06-.2-.18-.2s-.28.11-.46.42L45.7,22.1h-.78l.21-1.4v-.29a1.61,1.61,0,0,0,0-.31.54.54,0,0,0-.06-.25Z" transform="translate(-1.4 -1.63)"/><path class="f1f763d0-31d2-4160-b2b0-f9bf9f55f1db" d="M51.13,21.11v.18c0,.28,0,.37.25.36l-.14.47a1.48,1.48,0,0,1-.42,0,.42.42,0,0,1-.45-.39v-.06a.83.83,0,0,1-.75.47c-.49,0-.77-.41-.72-1A1.54,1.54,0,0,1,49.48,20a1.62,1.62,0,0,1,.88-.29,3.08,3.08,0,0,1,1,.16Zm-.66-.79h-.08a.55.55,0,0,0-.43.1,1,1,0,0,0-.3.65c0,.27.07.42.25.43s.26-.09.44-.35Z" transform="translate(-1.4 -1.63)"/><path class="f1f763d0-31d2-4160-b2b0-f9bf9f55f1db" d="M52.32,19.69a.52.52,0,0,1,.16.37v.15a1.67,1.67,0,0,1,.31-.34.82.82,0,0,1,.52-.18.56.56,0,0,1,.61.48v.39l-.24,1.54H52.9l.21-1.32v-.19s-.08-.22-.2-.2-.29.13-.47.45l-.19,1.26h-.78l.21-1.4v-.29a1.61,1.61,0,0,0,0-.31.54.54,0,0,0-.06-.25Z" transform="translate(-1.4 -1.63)"/><path class="f1f763d0-31d2-4160-b2b0-f9bf9f55f1db" d="M56.29,21.11v.18c0,.28,0,.37.25.36l-.14.47a1.48,1.48,0,0,1-.42,0,.42.42,0,0,1-.45-.39v-.06a.84.84,0,0,1-.76.47c-.48,0-.76-.41-.71-1A1.55,1.55,0,0,1,54.65,20a1.62,1.62,0,0,1,.88-.29,3.08,3.08,0,0,1,1,.16Zm-.65-.79h-.08a.55.55,0,0,0-.43.1,1,1,0,0,0-.3.65c0,.27.07.42.25.43s.26-.09.44-.35Z" transform="translate(-1.4 -1.63)"/><path class="a58eda0f-a345-430f-9b15-f8db263148ac" d="M34.53,22.1h-.8l.33-2.2-.33.23-.29.15-.38-.46a15.94,15.94,0,0,0,1.65-1.06L35,19Z" transform="translate(-1.4 -1.63)"/><path class="a58eda0f-a345-430f-9b15-f8db263148ac" d="M37.27,18.61l-2,3.75-.53-.1,2-3.76Z" transform="translate(-1.4 -1.63)"/><path class="a58eda0f-a345-430f-9b15-f8db263148ac" d="M39.17,22.1H36.91v-.42a8.72,8.72,0,0,0,1-.82c.47-.45.6-.65.6-.92a.4.4,0,0,0-.4-.4h0a1.07,1.07,0,0,0-.62.23l-.11-.65a1.71,1.71,0,0,1,1-.33,1,1,0,0,1,1.06.94v.06a1.48,1.48,0,0,1-.51,1c-.13.14-.3.29-.47.45l-.25.2h1.28Z" transform="translate(-1.4 -1.63)"/><path class="a58eda0f-a345-430f-9b15-f8db263148ac" d="M42.57,19.68a1.24,1.24,0,0,0-.66-.27.35.35,0,0,0-.38.28c0,.15.06.24.41.49a2.11,2.11,0,0,1,.47.42.89.89,0,0,1,.19.52,1,1,0,0,1-.5.88,1.39,1.39,0,0,1-.8.18,2.28,2.28,0,0,1-.89-.21,1.28,1.28,0,0,1-.25-.15l.21-.77a1.24,1.24,0,0,0,.82.4.34.34,0,0,0,.38-.3v0c0-.12-.06-.21-.22-.33-.31-.25-.43-.34-.54-.45a.82.82,0,0,1-.26-.66,1,1,0,0,1,.44-.8,1.42,1.42,0,0,1,.72-.2,1.84,1.84,0,0,1,1,.25Z" transform="translate(-1.4 -1.63)"/><path class="a58eda0f-a345-430f-9b15-f8db263148ac" d="M44.81,21.74a1.51,1.51,0,0,1-1.1.44.93.93,0,0,1-.74-.36,1,1,0,0,1-.2-.7,1.67,1.67,0,0,1,.4-1,1.28,1.28,0,0,1,.93-.43c.53,0,.83.24.83.65s-.46.8-1.34,1a.37.37,0,0,0,.35.33,1.08,1.08,0,0,0,.73-.35ZM44.3,20.4a.18.18,0,0,0-.15-.21h0c-.25,0-.47.3-.53.73C44,20.82,44.29,20.62,44.3,20.4Z" transform="translate(-1.4 -1.63)"/><path class="a58eda0f-a345-430f-9b15-f8db263148ac" d="M45.79,19.69a.52.52,0,0,1,.16.37.61.61,0,0,1,0,.19.94.94,0,0,1,.8-.56.53.53,0,0,1,.46.18.46.46,0,0,1,.09.36,1.07,1.07,0,0,1,.32-.35.89.89,0,0,1,.52-.19.54.54,0,0,1,.61.45.13.13,0,0,1,0,.06,1.22,1.22,0,0,1,0,.27l-.24,1.63h-.78l.2-1.35v-.16c0-.14,0-.2-.18-.2s-.27.11-.46.42l-.2,1.29h-.78l.21-1.35v-.16c0-.05-.06-.2-.18-.2s-.28.11-.46.42L45.7,22.1h-.78l.21-1.4v-.29a1.61,1.61,0,0,0,0-.31.54.54,0,0,0-.06-.25Z" transform="translate(-1.4 -1.63)"/><path class="a58eda0f-a345-430f-9b15-f8db263148ac" d="M51.13,21.11v.18c0,.28,0,.37.25.36l-.14.47a1.48,1.48,0,0,1-.42,0,.42.42,0,0,1-.45-.39v-.06a.83.83,0,0,1-.75.47c-.49,0-.77-.41-.72-1A1.54,1.54,0,0,1,49.48,20a1.62,1.62,0,0,1,.88-.29,3.08,3.08,0,0,1,1,.16Zm-.66-.79h-.08a.55.55,0,0,0-.43.1,1,1,0,0,0-.3.65c0,.27.07.42.25.43s.26-.09.44-.35Z" transform="translate(-1.4 -1.63)"/><path class="a58eda0f-a345-430f-9b15-f8db263148ac" d="M52.32,19.69a.52.52,0,0,1,.16.37v.15a1.67,1.67,0,0,1,.31-.34.82.82,0,0,1,.52-.18.56.56,0,0,1,.61.48v.39l-.24,1.54H52.9l.21-1.32v-.19s-.08-.22-.2-.2-.29.13-.47.45l-.19,1.26h-.78l.21-1.4v-.29a1.61,1.61,0,0,0,0-.31.54.54,0,0,0-.06-.25Z" transform="translate(-1.4 -1.63)"/><path class="a58eda0f-a345-430f-9b15-f8db263148ac" d="M56.29,21.11v.18c0,.28,0,.37.25.36l-.14.47a1.48,1.48,0,0,1-.42,0,.42.42,0,0,1-.45-.39v-.06a.84.84,0,0,1-.76.47c-.48,0-.76-.41-.71-1A1.55,1.55,0,0,1,54.65,20a1.62,1.62,0,0,1,.88-.29,3.08,3.08,0,0,1,1,.16Zm-.65-.79h-.08a.55.55,0,0,0-.43.1,1,1,0,0,0-.3.65c0,.27.07.42.25.43s.26-.09.44-.35Z" transform="translate(-1.4 -1.63)"/><path class="b277ffc5-d63a-488f-aa23-3ae2328c109d" d="M33.82,8.29A1.29,1.29,0,1,1,35.11,7a1.29,1.29,0,0,1-1.29,1.29Zm0-2.38A1.09,1.09,0,1,0,34.92,7a1.09,1.09,0,0,0-1.1-1.09Z" transform="translate(-1.4 -1.63)"/><path class="b277ffc5-d63a-488f-aa23-3ae2328c109d" d="M33.29,6.33h.64a.57.57,0,0,1,.26,0,.32.32,0,0,1,.19.31.26.26,0,0,1-.05.19.35.35,0,0,1-.15.12.35.35,0,0,1,.13.08.25.25,0,0,1,0,.17v.17a.21.21,0,0,0,0,.11.09.09,0,0,0,.06.08H34.2a.17.17,0,0,1,0-.1V7.27a.19.19,0,0,0-.1-.17h-.59v.56h-.19Zm.62.6a.34.34,0,0,0,.2,0,.23.23,0,0,0,.08-.18.18.18,0,0,0-.11-.19h-.6V7Z" transform="translate(-1.4 -1.63)"/></svg>