<svg xmlns="http://www.w3.org/2000/svg" xmlns:xlink="http://www.w3.org/1999/xlink" id="f072ebba-647c-4382-990a-5cd815e1ecea" data-name="Capa 1" viewBox="0 0 45.42 32.47"><defs><style>.a35879d6-24d3-4b88-a4ef-bb8c50ddc9a2,.ac6f41b4-c640-41c3-a633-c3a2782eb58e,.b1df1531-2086-41ab-81c1-8bd95066e15b,.ba94c2da-e0fe-43eb-9974-7c16eed43e06{stroke:#f15d2f;}.a35879d6-24d3-4b88-a4ef-bb8c50ddc9a2{stroke-width:2.69px;fill:url(#b2528d59-a81c-4c78-b189-91196b0f7b0a);}.b58d68d3-9c21-46fd-9748-e04453318eb5{fill:#006bb6;}.aea45cab-9a03-4e28-9822-96266ebae3b8,.b6983779-39c9-4faa-a6c7-143453c819c0{fill:#fff;}.acb90f03-7230-4337-bc30-0463f7379049,.b6983779-39c9-4faa-a6c7-143453c819c0{stroke:#fff;}.b6983779-39c9-4faa-a6c7-143453c819c0{stroke-width:0.25px;}.e3273456-44d9-4c8a-91da-9433a82fa508{fill:#939598;}.a3363e07-f7a8-48b0-a533-f4fcfca6c804,.acb90f03-7230-4337-bc30-0463f7379049{fill:#f15d2f;}.acb90f03-7230-4337-bc30-0463f7379049{stroke-width:0.5px;}.ac6f41b4-c640-41c3-a633-c3a2782eb58e,.ba94c2da-e0fe-43eb-9974-7c16eed43e06{stroke-width:0.67px;}.ba94c2da-e0fe-43eb-9974-7c16eed43e06{fill:url(#a56df4ab-1b6a-4d96-af62-374ae16706a7);}.ac6f41b4-c640-41c3-a633-c3a2782eb58e,.b1df1531-2086-41ab-81c1-8bd95066e15b{fill:none;}.b1df1531-2086-41ab-81c1-8bd95066e15b{stroke-width:0.46px;}</style><linearGradient id="b2528d59-a81c-4c78-b189-91196b0f7b0a" x1="54.64" y1="66.99" x2="54.84" y2="34.29" gradientTransform="translate(-0.01 0.58) rotate(-0.46)" gradientUnits="userSpaceOnUse"><stop offset="0" stop-color="#96b2dd"/><stop offset="1" stop-color="#006bb6"/></linearGradient><radialGradient id="a56df4ab-1b6a-4d96-af62-374ae16706a7" cx="39.07" cy="66" r="3.02" gradientTransform="matrix(0.94, -0.01, 0.01, 1, 18.98, 1.08)" gradientUnits="userSpaceOnUse"><stop offset="0.01" stop-color="#fff"/><stop offset="0.18" stop-color="#fbd2c6"/><stop offset="0.36" stop-color="#f8a990"/><stop offset="0.53" stop-color="#f58866"/><stop offset="0.68" stop-color="#f37048"/><stop offset="0.81" stop-color="#f16236"/><stop offset="0.9" stop-color="#f15d2f"/></radialGradient></defs><title>Logo Protouch</title><path class="a35879d6-24d3-4b88-a4ef-bb8c50ddc9a2" d="M55.32,72.08c8.68-1.56,16-7.72,16.13-13.31l-.13-16.44-32.48.26L39,59C39.15,64.62,46.61,70.66,55.32,72.08Z" transform="translate(-32.6 -40.97)"/><path class="b58d68d3-9c21-46fd-9748-e04453318eb5" d="M45.54,45l3.71,0a2.25,2.25,0,0,1,2.07,2.28c0,2.63-2.79,2.54-2.79,2.54l-.61-1.59s1.33.4,1.24-1.08c0-.93-1.49-.51-1.49-.51s-.14,4.14-.06,6.14l-2.29,0A74.71,74.71,0,0,0,45.54,45Z" transform="translate(-32.6 -40.97)"/><path class="b58d68d3-9c21-46fd-9748-e04453318eb5" d="M51.46,52.67s.65-5.83.29-7.61L56,45a1.84,1.84,0,0,1,1.78,1.82c-.12,2-1.27,2.23-1.27,2.23l1.35,3.54-2.36,0-1.35-4.32s1.63.1,1.52-.93c0,0-.08-1.3-1.6-.81-.23,1.64-.3,6.07-.3,6.07Z" transform="translate(-32.6 -40.97)"/><path class="b58d68d3-9c21-46fd-9748-e04453318eb5" d="M62.2,47c1.4,0,1.77.79,1.85,1.9s-.13,2.4-1.84,2.42c-1.3.07-1.87-.91-1.88-2.13S60.89,47,62.2,47ZM58,48.85c0,2.2,1.12,3.88,4.31,3.89,3.87-.14,4.25-2.76,4.13-4.55s-1.35-3.45-4.27-3.45A3.93,3.93,0,0,0,58,48.85Z" transform="translate(-32.6 -40.97)"/><path class="b6983779-39c9-4faa-a6c7-143453c819c0" d="M45.34,44.36l3.72,0a2.24,2.24,0,0,1,2.06,2.28c.06,2.63-2.79,2.54-2.79,2.54l-.6-1.59s1.32.4,1.24-1.08c0-.93-1.5-.51-1.5-.51s-.14,4.14,0,6.14l-2.29,0A72.51,72.51,0,0,0,45.34,44.36Z" transform="translate(-32.6 -40.97)"/><path class="b6983779-39c9-4faa-a6c7-143453c819c0" d="M51.27,52.08s.65-5.83.28-7.61l4.27,0a1.83,1.83,0,0,1,1.78,1.82c-.12,2-1.26,2.23-1.26,2.23L57.68,52l-2.35,0L54,47.73s1.63.1,1.52-.94c0,0-.08-1.29-1.6-.8-.23,1.63-.3,6.07-.3,6.07Z" transform="translate(-32.6 -40.97)"/><path class="b6983779-39c9-4faa-a6c7-143453c819c0" d="M62,45.94c1.4,0,1.77.79,1.85,1.9s-.13,2.4-1.84,2.41c-1.29.08-1.87-.9-1.88-2.12S60.69,46,62,45.94Zm-4.22,2.32c0,2.2,1.13,3.88,4.32,3.89C66,52,66.34,49.39,66.22,47.6S64.88,44.14,62,44.15A3.94,3.94,0,0,0,57.78,48.26Z" transform="translate(-32.6 -40.97)"/><path class="e3273456-44d9-4c8a-91da-9433a82fa508" d="M46,56.42c1.4,0,1.77,1.23,1.85,2.94S47.73,63.09,46,63.1c-1.29.11-1.87-1.42-1.88-3.3S44.68,56.43,46,56.42Zm-4.17,3.36c0,2.7,1.12,4.76,4.25,4.78,3.8-.16,4.17-3.38,4-5.57s-1.33-4.25-4.2-4.25C43.22,54.78,41.8,57.07,41.82,59.78Z" transform="translate(-32.6 -40.97)"/><polyline class="e3273456-44d9-4c8a-91da-9433a82fa508" points="0 11.34 7.97 13.05 8 16.96 6.1 16.88 6.08 14.54 5.15 14.41 5.22 22.16 5.95 22.11 5.96 23.68 1.84 24.68 1.82 22.65 2.92 22.33 2.85 14.09 1.94 13.95 1.97 16.45 0.04 16.37 0 11.34"/><path class="e3273456-44d9-4c8a-91da-9433a82fa508" d="M50.87,55.39l3.67,0V57H53.7s-.07,3.59,0,4,0,2.09,1.44,2.08c1,0,1.35-1.44,1.32-2.3,0-.53,0-3.83,0-3.83h-.82V55.27l3.49,0v1.53l-.64,0s0,4.32.06,4.45a3.56,3.56,0,0,1-7.1,0c0-.09-.08-4.29-.08-4.29h-.47Z" transform="translate(-32.6 -40.97)"/><path class="e3273456-44d9-4c8a-91da-9433a82fa508" d="M66.38,53.81l0,1s0-1-2.38-.84S59.75,56.61,60,60s2.36,4.09,3.93,4.28c1.33,0,3.23,0,4.15-3.23l-2.18,0s-.23,1.37-1.13,1.48-2,.32-2.16-3.08,1.1-4,2.1-3.82,1.45,2.27,1.45,2.27l2-.22.25-4.27Z" transform="translate(-32.6 -40.97)"/><polygon class="e3273456-44d9-4c8a-91da-9433a82fa508" points="36.7 12.26 40.46 11.57 40.48 13.56 39.65 13.66 39.47 16.86 41.97 16.65 42.06 13.35 41.4 13.46 41.39 11.36 44.49 10.6 44.51 12.9 43.97 12.97 43.92 22.43 44.59 22.56 44.6 24.65 41.09 23.99 41.07 22.01 42.01 22.05 41.99 19.02 39.49 19.09 39.34 21.84 40.34 21.96 40.36 23.81 36.35 23.43 36.34 21.66 37.17 21.7 37.4 14.14 36.71 14.24 36.7 12.26"/><path class="acb90f03-7230-4337-bc30-0463f7379049" d="M46.56,56c1.4,0,1.77,1.24,1.85,3s-.12,3.73-1.82,3.74c-1.3.11-1.87-1.42-1.89-3.3S45.25,56,46.56,56Zm-4.17,3.37c0,2.7,1.11,4.76,4.25,4.78,3.8-.16,4.17-3.38,4-5.57s-1.33-4.26-4.21-4.25C43.78,54.37,42.37,56.66,42.39,59.37Z" transform="translate(-32.6 -40.97)"/><polyline class="acb90f03-7230-4337-bc30-0463f7379049" points="0.57 10.93 8.54 12.64 8.57 16.55 6.67 16.46 6.65 14.13 5.72 14 5.78 21.75 6.52 21.7 6.53 23.27 2.41 24.27 2.39 22.24 3.48 21.92 3.42 13.68 2.51 13.54 2.53 16.04 0.61 15.96 0.57 10.93"/><path class="acb90f03-7230-4337-bc30-0463f7379049" d="M51.44,55l3.67,0v1.63h-.85s-.07,3.59,0,4,0,2.09,1.44,2.08c1,0,1.34-1.44,1.32-2.3,0-.53,0-3.83,0-3.83h-.82l0-1.71,3.5,0v1.53l-.64,0s0,4.32.06,4.45a3.27,3.27,0,0,1-3.28,3.32A3.26,3.26,0,0,1,52,60.86c0-.09-.09-4.29-.09-4.29h-.46Z" transform="translate(-32.6 -40.97)"/><path class="acb90f03-7230-4337-bc30-0463f7379049" d="M67,53.4l0,1s0-1-2.39-.85-4.2,2.68-4,6.08,2.36,4.09,3.92,4.28c1.33,0,3.23,0,4.16-3.23l-2.19,0s-.22,1.37-1.12,1.48-2,.32-2.17-3.08,1.11-4,2.11-3.82,1.44,2.27,1.44,2.27l2-.22L68.94,53Z" transform="translate(-32.6 -40.97)"/><polygon class="acb90f03-7230-4337-bc30-0463f7379049" points="37.27 11.85 41.03 11.16 41.05 13.15 40.22 13.25 40.04 16.45 42.54 16.24 42.63 12.94 41.97 13.04 41.95 10.95 45.06 10.19 45.08 12.49 44.54 12.55 44.48 22.02 45.15 22.14 45.17 24.24 41.65 23.58 41.63 21.6 42.58 21.64 42.56 18.61 40.06 18.68 39.91 21.43 40.91 21.55 40.92 23.4 36.92 23.02 36.9 21.25 37.73 21.29 37.97 13.72 37.28 13.83 37.27 11.85"/><path class="ba94c2da-e0fe-43eb-9974-7c16eed43e06" d="M51.13,67.94a5.38,5.38,0,0,0,4.42,2.48,5.52,5.52,0,0,0,4-2.55c-1.78-2.32-3.6-2.48-4.28-2.48A5.17,5.17,0,0,0,51.13,67.94Z" transform="translate(-32.6 -40.97)"/><path class="ac6f41b4-c640-41c3-a633-c3a2782eb58e" d="M54.5,66.54c0,.13-.32.65-.32.65" transform="translate(-32.6 -40.97)"/><path class="ac6f41b4-c640-41c3-a633-c3a2782eb58e" d="M54.48,67.19c0-.08-.25-.66-.25-.66" transform="translate(-32.6 -40.97)"/><path class="ac6f41b4-c640-41c3-a633-c3a2782eb58e" d="M55.06,66.48c-.05.12-.31.65-.31.65" transform="translate(-32.6 -40.97)"/><path class="ac6f41b4-c640-41c3-a633-c3a2782eb58e" d="M55,67.13c0-.08-.25-.66-.25-.66" transform="translate(-32.6 -40.97)"/><path class="ac6f41b4-c640-41c3-a633-c3a2782eb58e" d="M55.65,66.43c0,.13-.31.65-.31.65" transform="translate(-32.6 -40.97)"/><path class="ac6f41b4-c640-41c3-a633-c3a2782eb58e" d="M55.64,67.09l-.26-.67" transform="translate(-32.6 -40.97)"/><path class="ac6f41b4-c640-41c3-a633-c3a2782eb58e" d="M56.25,66.5c0,.13-.31.66-.31.66" transform="translate(-32.6 -40.97)"/><path class="ac6f41b4-c640-41c3-a633-c3a2782eb58e" d="M56.24,67.16,56,66.49" transform="translate(-32.6 -40.97)"/><path class="aea45cab-9a03-4e28-9822-96266ebae3b8" d="M52.1,66.94a1.58,1.58,0,0,1-.17,1.78,1,1,0,0,0,.19.13,1.61,1.61,0,0,0,.54-1.14,1.62,1.62,0,0,0-.31-.95Z" transform="translate(-32.6 -40.97)"/><path class="aea45cab-9a03-4e28-9822-96266ebae3b8" d="M58.48,66.8c-.1-.23.43,1.45-.06,2.3l.36-.34a1.58,1.58,0,0,0,.21-.84,2.81,2.81,0,0,0-.15-.72Z" transform="translate(-32.6 -40.97)"/><path class="ac6f41b4-c640-41c3-a633-c3a2782eb58e" d="M51.36,67.92a9,9,0,0,1,3.84-1.15,16.39,16.39,0,0,1,4.27,1.09" transform="translate(-32.6 -40.97)"/><polygon class="aea45cab-9a03-4e28-9822-96266ebae3b8" points="35.9 5.86 35.49 7.96 33.38 7.85 35.1 9.04 34.4 11.11 35.93 9.68 37.59 11.04 36.77 9.01 38.42 7.86 36.5 7.94 35.9 5.86"/><polygon class="aea45cab-9a03-4e28-9822-96266ebae3b8" points="10.06 6.07 9.66 8.17 7.55 8.06 9.27 9.25 8.56 11.31 10.1 9.88 11.75 11.24 10.93 9.21 12.59 8.06 10.66 8.14 10.06 6.07"/><path class="b1df1531-2086-41ab-81c1-8bd95066e15b" d="M75.55,48.79a1.13,1.13,0,1,1-1.13-1.12A1.13,1.13,0,0,1,75.55,48.79Z" transform="translate(-32.6 -40.97)"/><path class="a3363e07-f7a8-48b0-a533-f4fcfca6c804" d="M73.87,49.34V48.11h.59a.62.62,0,0,1,.26,0,.28.28,0,0,1,.15.11.33.33,0,0,1,.06.19.29.29,0,0,1-.09.22.48.48,0,0,1-.29.11l.11.06a.79.79,0,0,1,.14.17l.23.33h-.22l-.17-.25a.92.92,0,0,0-.13-.17l-.08-.08-.08,0h-.3v.54Zm.18-.69h.37a.53.53,0,0,0,.19,0,.18.18,0,0,0,.1-.07.23.23,0,0,0,0-.11.17.17,0,0,0-.06-.14.34.34,0,0,0-.22-.06h-.41Z" transform="translate(-32.6 -40.97)"/></svg>