<svg xmlns="http://www.w3.org/2000/svg" id="b1dbe934-0f84-47e3-bb08-6e5e0146b18e" data-name="Capa 1" viewBox="0 0 310 170"><defs><style>.f7213ba9-46cb-4810-96ab-90ed4fd0817e{fill:#510c76;}</style></defs><path class="f7213ba9-46cb-4810-96ab-90ed4fd0817e" d="M55.65,131.91a56.51,56.51,0,1,1,68.63-70.45,28.66,28.66,0,0,1,4.65,1.08A60.71,60.71,0,1,0,54.83,136Z"/><path class="f7213ba9-46cb-4810-96ab-90ed4fd0817e" d="M59,115A32.06,32.06,0,1,1,96,62.68l.17.11A37.56,37.56,0,1,0,42.35,115l.13.18a43.48,43.48,0,1,1,65.28-52.1,32.19,32.19,0,0,1,10.6-2,51,51,0,1,0-61.62,65.41Z"/><path class="f7213ba9-46cb-4810-96ab-90ed4fd0817e" d="M113,111.09l-7.71,39.12h-12l3.46-17.83-11,14.31H79.92l-6-14.08-3.52,17.6h-12l7.82-39.12H76.9l8.5,20.79,16.37-20.79Z"/><path class="f7213ba9-46cb-4810-96ab-90ed4fd0817e" d="M141.36,143.39H126.44l-3.92,6.82H108.61l24.92-39.12h13l9.28,39.12H142.64Zm-1.85-9.5-1.9-10-5.75,10Z"/><path class="f7213ba9-46cb-4810-96ab-90ed4fd0817e" d="M184.14,129.59H195.6l-3.36,16.88a23.87,23.87,0,0,1-7.18,3.43,30.47,30.47,0,0,1-8.69,1.21,23.93,23.93,0,0,1-10.54-2.21,16.32,16.32,0,0,1-9.52-15.29,23.19,23.19,0,0,1,3.18-12.13,22.1,22.1,0,0,1,8.89-8.29,27.65,27.65,0,0,1,13.07-3q12.2,0,17.78,7.65l-9.45,7.32a11.06,11.06,0,0,0-4-3.32,11.86,11.86,0,0,0-5-1,11.39,11.39,0,0,0-6,1.51A10,10,0,0,0,171,126.6a13.44,13.44,0,0,0-1.37,6.18,7.18,7.18,0,0,0,2.29,5.56,9,9,0,0,0,6.31,2.09,13,13,0,0,0,3.86-.56Z"/><path class="f7213ba9-46cb-4810-96ab-90ed4fd0817e" d="M242.82,111.09,235,150.21H224.15L212.92,132l-3.63,18.22H196.44l7.82-39.12H215.1l11.23,18.22L230,111.09Z"/><path class="f7213ba9-46cb-4810-96ab-90ed4fd0817e" d="M252.91,148.9a16.3,16.3,0,0,1-6.93-6.18,17.07,17.07,0,0,1-2.43-9.11,23.46,23.46,0,0,1,3.15-12.15,21.81,21.81,0,0,1,8.78-8.3,26.75,26.75,0,0,1,12.71-3,23.54,23.54,0,0,1,10.48,2.2,16.37,16.37,0,0,1,6.93,6.18,17.08,17.08,0,0,1,2.44,9.11,23.41,23.41,0,0,1-3.16,12.15,21.75,21.75,0,0,1-8.78,8.3,26.75,26.75,0,0,1-12.71,3A23.54,23.54,0,0,1,252.91,148.9Zm17-10.09a10.38,10.38,0,0,0,3.54-4.36,14.41,14.41,0,0,0,1.23-6,7.09,7.09,0,0,0-7.65-7.6,9.26,9.26,0,0,0-5.45,1.62,10.39,10.39,0,0,0-3.55,4.36,14.44,14.44,0,0,0-1.23,6,7.09,7.09,0,0,0,7.66,7.6A9.3,9.3,0,0,0,270,138.81Z"/><path class="f7213ba9-46cb-4810-96ab-90ed4fd0817e" d="M65.15,104.71a24,24,0,0,1-6.94-2.7L63,92.86a24.5,24.5,0,0,0,12.4,3.42A8.91,8.91,0,0,0,79,95.7c.84-.39,1.26-.91,1.26-1.58S79.85,93,79,92.6a24.37,24.37,0,0,0-4.07-1.26,50.43,50.43,0,0,1-6.1-1.92,11.32,11.32,0,0,1-4.23-3,7.72,7.72,0,0,1-1.81-5.33A12.19,12.19,0,0,1,65,73.81,14.15,14.15,0,0,1,71.45,69a26.32,26.32,0,0,1,9.93-1.71,34.26,34.26,0,0,1,7.65.81,21.28,21.28,0,0,1,6.12,2.34l-4.46,9a17.05,17.05,0,0,0-4.76-2,21.11,21.11,0,0,0-5.33-.68,8.87,8.87,0,0,0-4,.73c-.94.49-1.42,1.07-1.42,1.74s.43,1.19,1.29,1.57A24.53,24.53,0,0,0,80.7,82a48.18,48.18,0,0,1,6,1.79A10.86,10.86,0,0,1,91,86.76,7.62,7.62,0,0,1,92.74,92a12,12,0,0,1-2.26,7.2A14.49,14.49,0,0,1,84,104a26.09,26.09,0,0,1-9.88,1.71A37.93,37.93,0,0,1,65.15,104.71Z"/><path class="f7213ba9-46cb-4810-96ab-90ed4fd0817e" d="M104.9,103.66a15.38,15.38,0,0,1-6.52-5.81,16.06,16.06,0,0,1-2.28-8.56,22,22,0,0,1,3-11.43,20.5,20.5,0,0,1,8.25-7.81,25.32,25.32,0,0,1,12-2.78,22.19,22.19,0,0,1,9.86,2.07,15.45,15.45,0,0,1,6.52,5.81,16.1,16.1,0,0,1,2.28,8.57,22,22,0,0,1-3,11.43,20.54,20.54,0,0,1-8.25,7.8,25.2,25.2,0,0,1-11.95,2.79A22.19,22.19,0,0,1,104.9,103.66Zm16-9.49a9.77,9.77,0,0,0,3.34-4.09,13.63,13.63,0,0,0,1.15-5.63,6.65,6.65,0,0,0-7.19-7.14,8.68,8.68,0,0,0-5.13,1.52,9.8,9.8,0,0,0-3.34,4.1,13.58,13.58,0,0,0-1.15,5.62,6.68,6.68,0,0,0,7.2,7.15A8.68,8.68,0,0,0,120.93,94.17Z"/><path class="f7213ba9-46cb-4810-96ab-90ed4fd0817e" d="M175.17,88.73a15.37,15.37,0,0,1-7.34,5.44L174,104.9H161.11l-5.21-9.25h-3L151,104.9H138.61L146,68.11h16.5q7.26,0,11.28,3.18a10.71,10.71,0,0,1,4,8.9A14.35,14.35,0,0,1,175.17,88.73ZM160.58,77.67h-4.15l-1.73,8.62h5.09a5.74,5.74,0,0,0,4-1.29,4.58,4.58,0,0,0,1.42-3.6C165.21,78.92,163.66,77.67,160.58,77.67Z"/><path class="f7213ba9-46cb-4810-96ab-90ed4fd0817e" d="M190.64,77.73H179.87l1.94-9.62h33.95l-1.94,9.62H203l-5.41,27.17h-12.4Z"/><path class="f7213ba9-46cb-4810-96ab-90ed4fd0817e" d="M229.27,77.46l-.84,4.31H244l-1.78,8.94H226.59l-1,4.83h18.45l-1.89,9.36H211.61L219,68.11h29.9L247,77.46Z"/><path class="f7213ba9-46cb-4810-96ab-90ed4fd0817e" d="M257.83,103.66a15.38,15.38,0,0,1-6.52-5.81A16.06,16.06,0,0,1,249,89.29a22,22,0,0,1,3-11.43,20.43,20.43,0,0,1,8.25-7.81,25.29,25.29,0,0,1,11.95-2.78,22.22,22.22,0,0,1,9.86,2.07,15.36,15.36,0,0,1,6.51,5.81,16,16,0,0,1,2.29,8.57,22,22,0,0,1-3,11.43,20.54,20.54,0,0,1-8.25,7.8,25.21,25.21,0,0,1-12,2.79A22.15,22.15,0,0,1,257.83,103.66Zm16-9.49a9.75,9.75,0,0,0,3.33-4.09,13.48,13.48,0,0,0,1.16-5.63,6.66,6.66,0,0,0-7.2-7.14A8.67,8.67,0,0,0,266,78.83a9.72,9.72,0,0,0-3.34,4.1,13.59,13.59,0,0,0-1.16,5.62,6.68,6.68,0,0,0,7.2,7.15A8.71,8.71,0,0,0,273.86,94.17Z"/><path class="f7213ba9-46cb-4810-96ab-90ed4fd0817e" d="M295.24,139.27a4.85,4.85,0,0,1,2.35.61,4.45,4.45,0,0,1,1.77,1.75A4.85,4.85,0,0,1,300,144a4.78,4.78,0,0,1-.63,2.37,4.51,4.51,0,0,1-1.76,1.76,4.77,4.77,0,0,1-4.74,0,4.45,4.45,0,0,1-1.76-1.76,4.78,4.78,0,0,1-.63-2.37,4.85,4.85,0,0,1,.64-2.4,4.45,4.45,0,0,1,1.77-1.75A4.82,4.82,0,0,1,295.24,139.27Zm0,.93a3.85,3.85,0,0,0-1.88.49,3.63,3.63,0,0,0-1.42,1.41,3.84,3.84,0,0,0,0,3.84,3.61,3.61,0,0,0,1.41,1.41,3.81,3.81,0,0,0,3.81,0,3.67,3.67,0,0,0,1.41-1.41,3.84,3.84,0,0,0,0-3.84,3.57,3.57,0,0,0-1.42-1.41A3.86,3.86,0,0,0,295.24,140.2Zm-2.15,6.38v-5.06h1c1,0,1.5,0,1.62,0a1.79,1.79,0,0,1,.79.2,1.15,1.15,0,0,1,.47.48,1.4,1.4,0,0,1,.19.73,1.36,1.36,0,0,1-.35.93,1.63,1.63,0,0,1-1,.48,1.67,1.67,0,0,1,.36.19,3.29,3.29,0,0,1,.34.39c0,.05.16.26.37.62l.6,1h-1.27l-.42-.82a3.58,3.58,0,0,0-.71-1,1.1,1.1,0,0,0-.71-.22h-.27v2.08Zm1-2.88h.42a5.71,5.71,0,0,0,1.1-.06.66.66,0,0,0,.34-.24.7.7,0,0,0,.13-.39.58.58,0,0,0-.13-.38.6.6,0,0,0-.34-.23,4.6,4.6,0,0,0-1.1-.08h-.42Z"/></svg>