<svg xmlns="http://www.w3.org/2000/svg" id="fb6a6218-e041-4135-a873-ff09221e3f96" data-name="Capa 1" viewBox="0 0 310 170"><defs><style>.a9852da2-79b9-4a4c-8584-c8a08e1d1cbb{fill:#f5333f;}</style></defs><path class="a9852da2-79b9-4a4c-8584-c8a08e1d1cbb" d="M62.87,148.67h5.95a8.4,8.4,0,0,1,3.77.81,6.06,6.06,0,0,1,2.55,2.3,7,7,0,0,1,0,6.88,6.12,6.12,0,0,1-2.55,2.3,8.4,8.4,0,0,1-3.77.81H62.87Zm5.8,10.61a4.41,4.41,0,0,0,3.14-1.09,4.35,4.35,0,0,0,0-5.94,4.41,4.41,0,0,0-3.14-1.09H65.9v8.12Z"/><path class="a9852da2-79b9-4a4c-8584-c8a08e1d1cbb" d="M88.48,159.34v2.43H78.33v-13.1h9.9v2.43H81.35V154h6.08v2.36H81.35v3Z"/><path class="a9852da2-79b9-4a4c-8584-c8a08e1d1cbb" d="M96.19,148.67h3V159.3h6.57v2.47h-9.6Z"/><path class="a9852da2-79b9-4a4c-8584-c8a08e1d1cbb" d="M109.94,161.12a6.51,6.51,0,0,1-2.56-2.43,6.94,6.94,0,0,1,0-6.94,6.51,6.51,0,0,1,2.56-2.43,8.11,8.11,0,0,1,7.35,0,6.65,6.65,0,0,1,2.56,2.43,6.87,6.87,0,0,1,0,6.94,6.65,6.65,0,0,1-2.56,2.43,8.11,8.11,0,0,1-7.35,0Zm5.77-2.24a3.76,3.76,0,0,0,1.47-1.49,4.63,4.63,0,0,0,0-4.34,3.76,3.76,0,0,0-1.47-1.49,4.41,4.41,0,0,0-4.19,0,3.9,3.9,0,0,0-1.47,1.49,4.71,4.71,0,0,0,0,4.34,3.9,3.9,0,0,0,1.47,1.49,4.41,4.41,0,0,0,4.19,0Z"/><path class="a9852da2-79b9-4a4c-8584-c8a08e1d1cbb" d="M125.6,151.14h-4.19v-2.47h11.42v2.47h-4.2v10.63h-3Z"/><path class="a9852da2-79b9-4a4c-8584-c8a08e1d1cbb" d="M144.6,159.34v2.43H134.45v-13.1h9.91v2.43h-6.89V154h6.08v2.36h-6.08v3Z"/><path class="a9852da2-79b9-4a4c-8584-c8a08e1d1cbb" d="M155.36,161.77l-2.52-3.65h-2.79v3.65h-3v-13.1h5.68a7.23,7.23,0,0,1,3,.58,4.5,4.5,0,0,1,0,8.31l2.94,4.21Zm-.76-10a3.22,3.22,0,0,0-2.08-.59h-2.47v4.57h2.47a3.16,3.16,0,0,0,2.08-.6,2.37,2.37,0,0,0,0-3.38Z"/><path class="a9852da2-79b9-4a4c-8584-c8a08e1d1cbb" d="M163.11,144.9h3.15l-3.39,2.7h-2.28Zm-2.34,3.77h3v13.1h-3Z"/><path class="a9852da2-79b9-4a4c-8584-c8a08e1d1cbb" d="M175.54,159h-6.08l-1.16,2.81h-3.11l5.84-13.1h3l5.86,13.1H176.7Zm-.95-2.3-2.08-5-2.08,5Z"/><path class="a9852da2-79b9-4a4c-8584-c8a08e1d1cbb" d="M198.57,148.67v13.1h-2.49l-6.53-8v8h-3v-13.1h2.51l6.51,8v-8Z"/><path class="a9852da2-79b9-4a4c-8584-c8a08e1d1cbb" d="M210.31,159h-6.09l-1.16,2.81H200l5.84-13.1h3l5.86,13.1h-3.18Zm-1-2.3-2.08-5-2.07,5Z"/><path class="a9852da2-79b9-4a4c-8584-c8a08e1d1cbb" d="M218.48,161.13a6.53,6.53,0,0,1-2.55-2.42,7.08,7.08,0,0,1,0-7,6.53,6.53,0,0,1,2.55-2.42,7.56,7.56,0,0,1,3.64-.87,7.66,7.66,0,0,1,3.08.6,6.2,6.2,0,0,1,2.31,1.72l-1.95,1.8a4.17,4.17,0,0,0-3.29-1.53,4.31,4.31,0,0,0-2.17.53,3.75,3.75,0,0,0-1.49,1.49,4.71,4.71,0,0,0,0,4.34,3.75,3.75,0,0,0,1.49,1.49,4.31,4.31,0,0,0,2.17.53,4.13,4.13,0,0,0,3.29-1.55l1.95,1.8a6.08,6.08,0,0,1-2.32,1.74,7.71,7.71,0,0,1-3.09.6A7.51,7.51,0,0,1,218.48,161.13Z"/><path class="a9852da2-79b9-4a4c-8584-c8a08e1d1cbb" d="M229.55,148.67h3v13.1h-3Z"/><path class="a9852da2-79b9-4a4c-8584-c8a08e1d1cbb" d="M238.36,161.12a6.69,6.69,0,0,1,0-11.8,8.11,8.11,0,0,1,7.35,0,6.7,6.7,0,0,1,0,11.8,8.11,8.11,0,0,1-7.35,0Zm5.77-2.24a3.76,3.76,0,0,0,1.47-1.49,4.63,4.63,0,0,0,0-4.34,3.76,3.76,0,0,0-1.47-1.49,4.41,4.41,0,0,0-4.19,0,3.9,3.9,0,0,0-1.47,1.49,4.71,4.71,0,0,0,0,4.34,3.9,3.9,0,0,0,1.47,1.49,4.41,4.41,0,0,0,4.19,0Z"/><path class="a9852da2-79b9-4a4c-8584-c8a08e1d1cbb" d="M263.51,148.67v13.1H261l-6.53-8v8h-3v-13.1H254l6.51,8v-8Z"/><path class="a9852da2-79b9-4a4c-8584-c8a08e1d1cbb" d="M275.25,159h-6.09L268,161.77h-3.11l5.84-13.1h3l5.86,13.1h-3.18Zm-1-2.3-2.08-5-2.08,5Z"/><path class="a9852da2-79b9-4a4c-8584-c8a08e1d1cbb" d="M281,148.67h3V159.3h6.57v2.47H281Z"/><path class="a9852da2-79b9-4a4c-8584-c8a08e1d1cbb" d="M53.94,121.74A56.86,56.86,0,1,1,123,50.85a27.78,27.78,0,0,1,4.68,1.09,61.08,61.08,0,1,0-74.56,74Z"/><path class="a9852da2-79b9-4a4c-8584-c8a08e1d1cbb" d="M57.35,104.7A32.26,32.26,0,1,1,94.5,52.08l.17.11a37.78,37.78,0,1,0-54.11,52.5l.13.18a43.75,43.75,0,1,1,65.68-52.43,32.35,32.35,0,0,1,10.67-2,51.28,51.28,0,1,0-62,65.81Z"/><path class="a9852da2-79b9-4a4c-8584-c8a08e1d1cbb" d="M63.49,94.37a24.43,24.43,0,0,1-7-2.73l4.81-9.2A24.63,24.63,0,0,0,73.8,85.88a9,9,0,0,0,3.65-.58c.85-.39,1.27-.92,1.27-1.59s-.43-1.14-1.29-1.53a26.44,26.44,0,0,0-4.1-1.27A50,50,0,0,1,67.19,79a11.34,11.34,0,0,1-4.25-3,7.74,7.74,0,0,1-1.83-5.37,12.28,12.28,0,0,1,2.25-7.33,14.43,14.43,0,0,1,6.48-4.86,26.37,26.37,0,0,1,10-1.72,34.18,34.18,0,0,1,7.7.82,21.79,21.79,0,0,1,6.16,2.35L89.19,69a16.91,16.91,0,0,0-4.78-2.06A21,21,0,0,0,79,66.21,8.92,8.92,0,0,0,75,67c-1,.49-1.43,1.08-1.43,1.75s.43,1.19,1.3,1.58a25.21,25.21,0,0,0,4.26,1.27,47,47,0,0,1,6,1.8,10.8,10.8,0,0,1,4.25,3,7.63,7.63,0,0,1,1.8,5.29A11.93,11.93,0,0,1,89,88.84a14.54,14.54,0,0,1-6.51,4.84,26.16,26.16,0,0,1-9.93,1.72A38,38,0,0,1,63.49,94.37Z"/><path class="a9852da2-79b9-4a4c-8584-c8a08e1d1cbb" d="M103.49,93.31a15.47,15.47,0,0,1-6.55-5.84,16.13,16.13,0,0,1-2.3-8.62,22.06,22.06,0,0,1,3-11.5,20.55,20.55,0,0,1,8.3-7.86,25.47,25.47,0,0,1,12-2.8,22.28,22.28,0,0,1,9.91,2.09,15.44,15.44,0,0,1,6.56,5.84,16.22,16.22,0,0,1,2.3,8.62,22.15,22.15,0,0,1-3,11.5,20.62,20.62,0,0,1-8.3,7.86,25.36,25.36,0,0,1-12,2.8A22.32,22.32,0,0,1,103.49,93.31Zm16.13-9.54A9.93,9.93,0,0,0,123,79.64,13.58,13.58,0,0,0,124.14,74a6.71,6.71,0,0,0-7.24-7.19,8.74,8.74,0,0,0-5.16,1.54,9.74,9.74,0,0,0-3.35,4.12,13.59,13.59,0,0,0-1.17,5.66,6.71,6.71,0,0,0,7.25,7.19A8.77,8.77,0,0,0,119.62,83.77Z"/><path class="a9852da2-79b9-4a4c-8584-c8a08e1d1cbb" d="M174.19,78.29a15.48,15.48,0,0,1-7.37,5.48L173,94.55H160.05l-5.24-9.3h-3.06l-1.86,9.3H137.42l7.4-37h16.6q7.31,0,11.35,3.2a10.79,10.79,0,0,1,4,9A14.38,14.38,0,0,1,174.19,78.29ZM159.52,67.16h-4.18l-1.74,8.67h5.13a5.77,5.77,0,0,0,4-1.29,4.62,4.62,0,0,0,1.43-3.62Q164.17,67.16,159.52,67.16Z"/><path class="a9852da2-79b9-4a4c-8584-c8a08e1d1cbb" d="M189.76,67.21H178.93l1.95-9.67H215l-1.95,9.67H202.24L196.8,94.55H184.32Z"/><path class="a9852da2-79b9-4a4c-8584-c8a08e1d1cbb" d="M228.63,67l-.84,4.34h15.65l-1.8,9h-15.7l-1,4.86h18.56l-1.9,9.41H210.86l7.41-37h30.09L246.45,67Z"/><path class="a9852da2-79b9-4a4c-8584-c8a08e1d1cbb" d="M257.37,93.31a15.5,15.5,0,0,1-6.56-5.84,16.22,16.22,0,0,1-2.3-8.62,22.15,22.15,0,0,1,3-11.5,20.62,20.62,0,0,1,8.3-7.86,25.5,25.5,0,0,1,12-2.8,22.32,22.32,0,0,1,9.92,2.09,15.41,15.41,0,0,1,6.55,5.84,16.13,16.13,0,0,1,2.3,8.62,22.15,22.15,0,0,1-3,11.5,20.62,20.62,0,0,1-8.3,7.86,25.41,25.41,0,0,1-12,2.8A22.29,22.29,0,0,1,257.37,93.31Zm16.13-9.54a9.93,9.93,0,0,0,3.36-4.13A13.74,13.74,0,0,0,278,74a6.71,6.71,0,0,0-7.25-7.19,8.71,8.71,0,0,0-5.15,1.54,9.84,9.84,0,0,0-3.36,4.12,13.74,13.74,0,0,0-1.16,5.66,6.71,6.71,0,0,0,7.24,7.19A8.78,8.78,0,0,0,273.5,83.77Z"/><path class="a9852da2-79b9-4a4c-8584-c8a08e1d1cbb" d="M89.8,118.8h11.81l-3.45,17.41a24.56,24.56,0,0,1-7.41,3.54,31.25,31.25,0,0,1-9,1.24,24.76,24.76,0,0,1-10.87-2.27A16.83,16.83,0,0,1,61.1,123a23.82,23.82,0,0,1,3.28-12.5,22.76,22.76,0,0,1,9.17-8.56A28.53,28.53,0,0,1,87,98.81q12.57,0,18.33,7.89l-9.74,7.55a11.49,11.49,0,0,0-4.09-3.43,12.2,12.2,0,0,0-5.13-1,11.78,11.78,0,0,0-6.14,1.56,10.39,10.39,0,0,0-4,4.35,14,14,0,0,0-1.41,6.37,7.37,7.37,0,0,0,2.36,5.73A9.24,9.24,0,0,0,83.69,130a13.83,13.83,0,0,0,4-.58Z"/><path class="a9852da2-79b9-4a4c-8584-c8a08e1d1cbb" d="M115.07,138.72a16.94,16.94,0,0,1-7.15-6.37,17.64,17.64,0,0,1-2.5-9.4,24.15,24.15,0,0,1,3.25-12.53,22.56,22.56,0,0,1,9-8.56,27.65,27.65,0,0,1,13.11-3,24.2,24.2,0,0,1,10.81,2.27,16.88,16.88,0,0,1,7.15,6.37,17.63,17.63,0,0,1,2.51,9.39A24.17,24.17,0,0,1,148,129.38a22.49,22.49,0,0,1-9,8.56A27.62,27.62,0,0,1,125.88,141,24.37,24.37,0,0,1,115.07,138.72Zm17.58-10.41a10.75,10.75,0,0,0,3.66-4.49,15,15,0,0,0,1.27-6.17,7.33,7.33,0,0,0-7.9-7.84,9.54,9.54,0,0,0-5.62,1.68A10.75,10.75,0,0,0,120.4,116a15,15,0,0,0-1.27,6.17A7.33,7.33,0,0,0,127,130,9.54,9.54,0,0,0,132.65,128.31Z"/><path class="a9852da2-79b9-4a4c-8584-c8a08e1d1cbb" d="M192.13,122.35a16.91,16.91,0,0,1-8,6l6.74,11.76H176.71L171,129.93h-3.34l-2,10.14H152l8.07-40.34h18.1q7.95,0,12.36,3.49A11.73,11.73,0,0,1,195,113,15.73,15.73,0,0,1,192.13,122.35Zm-16-12.13h-4.55l-1.9,9.45h5.59a6.3,6.3,0,0,0,4.38-1.41,5.06,5.06,0,0,0,1.56-4C181.21,111.58,179.51,110.22,176.13,110.22Z"/><path class="a9852da2-79b9-4a4c-8584-c8a08e1d1cbb" d="M203.05,99.73h18.21a26.76,26.76,0,0,1,11,2.07,16,16,0,0,1,7.12,5.94,16.49,16.49,0,0,1,2.48,9.1,23,23,0,0,1-3.23,12.25,21.45,21.45,0,0,1-9,8.13,29,29,0,0,1-13.06,2.85H195Zm14,29.74a10.29,10.29,0,0,0,8.16-3.32,12.41,12.41,0,0,0,2.91-8.5,6.85,6.85,0,0,0-2.16-5.42,9.24,9.24,0,0,0-6.26-1.9h-5.18l-3.81,19.14Z"/><path class="a9852da2-79b9-4a4c-8584-c8a08e1d1cbb" d="M254.48,138.72a16.85,16.85,0,0,1-7.14-6.37,17.64,17.64,0,0,1-2.51-9.4,24.16,24.16,0,0,1,3.26-12.53,22.43,22.43,0,0,1,9-8.56,27.62,27.62,0,0,1,13.11-3,24.19,24.19,0,0,1,10.8,2.27,16.88,16.88,0,0,1,7.15,6.37,17.63,17.63,0,0,1,2.51,9.39,24.17,24.17,0,0,1-3.26,12.54,22.49,22.49,0,0,1-9.05,8.56A27.62,27.62,0,0,1,265.29,141,24.4,24.4,0,0,1,254.48,138.72Zm17.58-10.41a10.6,10.6,0,0,0,3.66-4.49,14.81,14.81,0,0,0,1.27-6.17,7.31,7.31,0,0,0-7.89-7.84,9.5,9.5,0,0,0-5.62,1.68,10.6,10.6,0,0,0-3.66,4.49,14.81,14.81,0,0,0-1.27,6.17,7.31,7.31,0,0,0,7.89,7.84A9.5,9.5,0,0,0,272.06,128.31Z"/><path class="a9852da2-79b9-4a4c-8584-c8a08e1d1cbb" d="M297.3,128.46a4.73,4.73,0,0,1,2.32.61,4.32,4.32,0,0,1,1.74,1.73,4.69,4.69,0,0,1,.64,2.37,4.79,4.79,0,0,1-.62,2.34,4.54,4.54,0,0,1-1.74,1.74,4.76,4.76,0,0,1-2.34.62,4.83,4.83,0,0,1-2.35-.62,4.45,4.45,0,0,1-1.73-1.74,4.7,4.7,0,0,1-.63-2.34,4.79,4.79,0,0,1,.64-2.37,4.35,4.35,0,0,1,1.75-1.73A4.71,4.71,0,0,1,297.3,128.46Zm0,.92a3.92,3.92,0,0,0-1.86.49,3.53,3.53,0,0,0-1.4,1.39,3.85,3.85,0,0,0-.51,1.91,3.76,3.76,0,0,0,.5,1.88,3.6,3.6,0,0,0,1.39,1.4,3.76,3.76,0,0,0,1.88.5,3.7,3.7,0,0,0,1.88-.5,3.56,3.56,0,0,0,1.4-1.4,3.77,3.77,0,0,0,.51-1.88,3.86,3.86,0,0,0-.52-1.91,3.53,3.53,0,0,0-1.4-1.39A3.93,3.93,0,0,0,297.3,129.38Zm-2.13,6.3v-5h2.61a2,2,0,0,1,.78.2,1.28,1.28,0,0,1,.47.48,1.39,1.39,0,0,1,.19.72,1.32,1.32,0,0,1-.35.92,1.61,1.61,0,0,1-1,.48,1.13,1.13,0,0,1,.35.18,2.11,2.11,0,0,1,.34.39c0,.05.16.25.37.61l.59,1h-1.25l-.42-.81a3.62,3.62,0,0,0-.7-1,1.12,1.12,0,0,0-.7-.21h-.26v2.05Zm1-2.83h.41a5.33,5.33,0,0,0,1.09-.07.62.62,0,0,0,.33-.24.64.64,0,0,0,.12-.38.61.61,0,0,0-.12-.37.66.66,0,0,0-.34-.24,5.28,5.28,0,0,0-1.08-.07h-.41Z"/></svg>